<?xml version="1.0" encoding="utf-8"?>
<!-- Generator: Adobe Illustrator 16.0.0, SVG Export Plug-In . SVG Version: 6.00 Build 0)  -->
<!DOCTYPE svg PUBLIC "-//W3C//DTD SVG 1.1//EN" "http://www.w3.org/Graphics/SVG/1.1/DTD/svg11.dtd">
<svg version="1.1" id="Calque_2" xmlns="http://www.w3.org/2000/svg" xmlns:xlink="http://www.w3.org/1999/xlink" x="0px" y="0px"
	 width="1920px" height="643.569px" viewBox="0 0 1920 643.569" enable-background="new 0 0 1920 643.569" xml:space="preserve">
<g>
	<g>
		<g>
			<linearGradient id="SVGID_1_" gradientUnits="userSpaceOnUse" x1="536.291" y1="222.5664" x2="889.0771" y2="222.5664">
				<stop  offset="0" style="stop-color:#DA80FF"/>
				<stop  offset="0.211" style="stop-color:#D77FFE"/>
				<stop  offset="0.3683" style="stop-color:#CD7BF9"/>
				<stop  offset="0.5081" style="stop-color:#BD74F2"/>
				<stop  offset="0.6379" style="stop-color:#A76BE8"/>
				<stop  offset="0.7607" style="stop-color:#895FDB"/>
				<stop  offset="0.8783" style="stop-color:#6550CB"/>
				<stop  offset="0.9897" style="stop-color:#3B3FB9"/>
				<stop  offset="1" style="stop-color:#373DB7"/>
			</linearGradient>
			<path fill="url(#SVGID_1_)" d="M879.716,282.988c-3.249,0.011-6.403-0.407-9.466-1.255c-3.081-0.854-6.063-2.141-8.943-3.87
				c-2.893-1.735-5.682-3.911-8.365-6.528c-2.689-2.627-5.267-5.697-7.731-9.208c-0.552-0.786-1.091-1.594-1.625-2.415
				c-0.161-0.247-0.318-0.498-0.477-0.747c-0.398-0.626-0.791-1.264-1.178-1.909c-0.142-0.235-0.284-0.468-0.424-0.707
				c-0.507-0.861-1.005-1.736-1.494-2.63c-0.082-0.149-0.159-0.303-0.239-0.453c-0.413-0.769-0.82-1.546-1.221-2.339
				c-0.142-0.281-0.283-0.565-0.422-0.85c-0.367-0.743-0.729-1.497-1.085-2.261c-0.106-0.228-0.213-0.453-0.319-0.682
				c-0.438-0.96-0.867-1.936-1.287-2.928c-0.551-1.297-1.085-2.623-1.602-3.974c-0.138-0.357-0.268-0.727-0.403-1.087
				c-0.381-1.024-0.759-2.061-1.124-3.116c-0.168-0.485-0.332-0.976-0.497-1.468c-0.328-0.987-0.651-1.987-0.965-3
				c-0.152-0.493-0.308-0.982-0.457-1.481c-0.374-1.248-0.735-2.515-1.086-3.802c-0.068-0.25-0.141-0.492-0.209-0.743
				c-0.41-1.531-0.802-3.092-1.181-4.675c-0.115-0.477-0.221-0.964-0.333-1.446c-0.265-1.149-0.523-2.31-0.773-3.487
				c-0.118-0.568-0.235-1.141-0.355-1.713c-0.235-1.17-0.462-2.353-0.684-3.547c-0.098-0.533-0.2-1.062-0.294-1.601
				c-0.305-1.713-0.597-3.447-0.868-5.212L803.593,67.072L536.291,220.4l10.565,102.089c0.135,1.311,0.292,2.594,0.462,3.861
				c0.052,0.395,0.11,0.779,0.166,1.169c0.127,0.888,0.262,1.767,0.406,2.633c0.036,0.218,0.065,0.446,0.102,0.663
				c0.034,0.198,0.076,0.387,0.111,0.582c0.156,0.885,0.323,1.758,0.499,2.619c0.066,0.332,0.129,0.669,0.199,0.996
				c0.025,0.121,0.047,0.248,0.074,0.369c0.226,1.045,0.466,2.07,0.719,3.081c0.007,0.026,0.011,0.052,0.019,0.077
				c0.035,0.143,0.077,0.277,0.114,0.421c0.245,0.953,0.501,1.894,0.77,2.817c0.104,0.358,0.213,0.709,0.321,1.063
				c0.225,0.74,0.458,1.469,0.7,2.188c0.068,0.204,0.128,0.418,0.198,0.62c0.053,0.151,0.112,0.295,0.166,0.445
				c0.075,0.216,0.145,0.438,0.222,0.65c0.199,0.552,0.412,1.085,0.622,1.623c0.098,0.253,0.191,0.511,0.292,0.761
				c0.394,0.981,0.805,1.942,1.23,2.879c0.019,0.04,0.034,0.081,0.052,0.12c0.052,0.112,0.111,0.217,0.162,0.329
				c0.429,0.925,0.877,1.823,1.339,2.704c0.076,0.144,0.142,0.299,0.219,0.442c0.059,0.112,0.127,0.214,0.188,0.323
				c0.109,0.203,0.211,0.411,0.322,0.609c0.433,0.778,0.881,1.533,1.34,2.272c0.01,0.018,0.02,0.035,0.03,0.052
				c0.04,0.064,0.085,0.122,0.125,0.188c0.54,0.857,1.101,1.687,1.675,2.496c0.082,0.115,0.155,0.242,0.239,0.355
				c0.076,0.105,0.16,0.201,0.236,0.306c0.634,0.862,1.282,1.709,1.958,2.514c2.06,2.456,4.259,4.574,6.594,6.353
				c2.328,1.774,4.791,3.21,7.384,4.309c2.585,1.095,5.299,1.854,8.14,2.278c2.828,0.423,5.779,0.514,8.854,0.274l8.886-0.689
				l287.089-94.285L879.716,282.988z"/>
			<g>
				<linearGradient id="SVGID_2_" gradientUnits="userSpaceOnUse" x1="803.5928" y1="175.0303" x2="889.0771" y2="175.0303">
					<stop  offset="0" style="stop-color:#DA80FF"/>
					<stop  offset="0.211" style="stop-color:#D77FFE"/>
					<stop  offset="0.3683" style="stop-color:#CD7BF9"/>
					<stop  offset="0.5081" style="stop-color:#BD74F2"/>
					<stop  offset="0.6379" style="stop-color:#A76BE8"/>
					<stop  offset="0.7607" style="stop-color:#895FDB"/>
					<stop  offset="0.8783" style="stop-color:#6550CB"/>
					<stop  offset="0.9897" style="stop-color:#3B3FB9"/>
					<stop  offset="1" style="stop-color:#373DB7"/>
				</linearGradient>
				<path fill="url(#SVGID_2_)" d="M803.593,67.072l37.139,7.498l19.525,122.017c0.388,2.434,0.802,4.671,1.238,6.71
					c0.438,2.041,0.9,3.882,1.385,5.525c0.484,1.642,0.993,3.085,1.526,4.326c0.53,1.241,1.085,2.282,1.663,3.121
					c0.576,0.839,1.246,1.582,2.007,2.231c0.76,0.647,1.609,1.198,2.553,1.656c0.94,0.456,1.971,0.817,3.089,1.083
					c1.117,0.266,2.321,0.437,3.617,0.513l1.811,0.108l9.932,61.097l-9.361,0.031c-3.249,0.011-6.403-0.407-9.466-1.255
					c-3.081-0.854-6.063-2.141-8.943-3.87c-2.893-1.735-5.682-3.911-8.365-6.528c-2.689-2.627-5.267-5.697-7.731-9.208
					c-2.47-3.519-4.755-7.38-6.856-11.579c-2.101-4.206-4.017-8.746-5.739-13.618c-1.723-4.874-3.253-10.074-4.589-15.593
					c-1.333-5.516-2.474-11.345-3.417-17.482L803.593,67.072z"/>
			</g>
		</g>
		<g>
			<linearGradient id="SVGID_3_" gradientUnits="userSpaceOnUse" x1="25.3184" y1="304.6982" x2="288.6914" y2="304.6982">
				<stop  offset="0" style="stop-color:#00269E"/>
				<stop  offset="0.0995" style="stop-color:#0729A1"/>
				<stop  offset="0.2401" style="stop-color:#1930A9"/>
				<stop  offset="0.4052" style="stop-color:#373DB7"/>
				<stop  offset="0.589" style="stop-color:#624EC9"/>
				<stop  offset="0.7881" style="stop-color:#9865E2"/>
				<stop  offset="0.9972" style="stop-color:#D980FF"/>
				<stop  offset="1" style="stop-color:#DA80FF"/>
			</linearGradient>
			<path fill="url(#SVGID_3_)" d="M234.375,355.293c-2.969,0.594-6.05,1-9.242,1.221c-3.203,0.22-6.518,0.253-9.946,0.098
				c-6.117-0.277-12.049-1.192-17.789-2.742c-5.766-1.56-11.331-3.761-16.688-6.607c-5.072-2.695-9.952-5.972-14.638-9.817
				l63.558-44.955c0.475-0.335,0.939-0.69,1.391-1.064s0.893-0.766,1.323-1.176c0.429-0.411,0.847-0.842,1.254-1.289
				c0.405-0.447,0.801-0.914,1.184-1.399c1.36-1.721,2.558-3.65,3.59-5.785c0.508-1.05,0.976-2.151,1.404-3.301l48.914-35.464
				l-47.81-0.826c-1.69-5.324-3.648-10.025-5.875-14.108c-2.227-4.082-4.723-7.551-7.494-10.413
				c-2.773-2.865-5.826-5.123-9.159-6.776c-3.341-1.657-6.971-2.708-10.892-3.153c-2.272-0.257-4.447-0.29-6.525-0.1
				c-2.083,0.192-4.069,0.608-5.958,1.251c-0.474,0.16-0.941,0.335-1.402,0.525c-1.384,0.568-2.712,1.264-3.986,2.088
				c-1.702,1.102-3.308,2.432-4.814,3.992c-19.25,19.933-38.5,39.865-57.75,59.797c-0.783-3.022-1.465-6.091-2.035-9.21
				c-1.276-6.998-2.016-14.23-2.22-21.688c-0.18-6.568,0.071-12.841,0.751-18.82c0.677-5.954,1.777-11.612,3.299-16.976
				c1.515-5.338,3.447-10.383,5.792-15.133c2.332-4.725,5.072-9.157,8.216-13.296c-34.05,44.835-68.099,89.667-102.148,134.501
				c-2.207,2.904-4.142,5.983-5.806,9.237c-1.668,3.264-3.063,6.7-4.181,10.313c-1.122,3.622-1.964,7.42-2.528,11.391
				c-0.565,3.982-0.848,8.138-0.849,12.466c-0.001,4.91,0.358,9.645,1.08,14.205c0.723,4.566,1.808,8.952,3.257,13.152
				c1.45,4.206,3.263,8.223,5.437,12.047c2.174,3.827,4.709,7.456,7.603,10.893c2.891,3.432,5.952,6.443,9.18,9.03
				c3.224,2.587,6.612,4.748,10.162,6.485c3.542,1.735,7.243,3.047,11.101,3.936c3.846,0.887,7.844,1.354,11.991,1.4
				c2.328,0.027,4.586-0.067,6.775-0.283c2.184-0.215,4.299-0.552,6.346-1.005c2.042-0.454,4.016-1.027,5.92-1.72
				c1.901-0.69,3.734-1.502,5.499-2.431c47.039-24.746,94.076-49.488,141.116-74.234c-2.511,1.32-5.131,2.459-7.861,3.416
				C240.184,353.927,237.335,354.702,234.375,355.293z"/>
			<g>
				<path fill="#D87FFD" d="M205.761,153.09c5.708,0.788,11.185,2.109,16.434,3.957c5.229,1.841,10.239,4.208,15.035,7.1
					c4.782,2.883,9.357,6.292,13.729,10.227c4.364,3.926,8.531,8.381,12.505,13.367c2.75,3.445,5.335,7.173,7.756,11.186
					c2.421,4.016,4.681,8.316,6.78,12.91c2.099,4.597,4.039,9.487,5.819,14.676c1.783,5.196,3.407,10.695,4.874,16.499l-47.81-0.826
					c-1.69-5.324-3.648-10.025-5.875-14.108c-2.227-4.082-4.723-7.551-7.494-10.413c-2.773-2.865-5.826-5.123-9.159-6.776
					c-3.341-1.657-6.971-2.708-10.892-3.153c-2.505-0.284-4.893-0.295-7.163-0.034c-2.276,0.262-4.434,0.798-6.474,1.61
					c-2.044,0.814-3.971,1.903-5.779,3.271c-1.813,1.371-3.505,3.022-5.08,4.953c-1.578,1.938-2.942,4.049-4.095,6.331
					c-1.155,2.289-2.097,4.749-2.824,7.382c-0.729,2.639-1.241,5.452-1.537,8.437c-0.296,2.992-0.375,6.155-0.234,9.494
					c0.135,3.226,0.474,6.335,1.015,9.328c0.542,2.997,1.289,5.874,2.24,8.63c0.951,2.758,2.106,5.396,3.465,7.909
					c1.36,2.514,2.922,4.903,4.688,7.167c1.763,2.264,3.625,4.267,5.583,6.012c1.956,1.743,4.009,3.226,6.156,4.448
					c2.145,1.222,4.382,2.182,6.713,2.883c2.327,0.699,4.744,1.14,7.251,1.323c2.54,0.185,4.932,0.127,7.18-0.174
					c2.24-0.3,4.336-0.839,6.286-1.62c1.945-0.779,3.746-1.796,5.402-3.052c1.652-1.254,3.161-2.744,4.527-4.471
					c1.36-1.721,2.558-3.65,3.59-5.785c1.031-2.131,1.898-4.468,2.603-7.01c0.704-2.536,1.244-5.277,1.624-8.22
					c0.379-2.937,0.599-6.078,0.657-9.419l47.25,5.861c-0.198,7.504-0.758,14.584-1.682,21.238
					c-0.929,6.689-2.225,12.948-3.892,18.775c-1.677,5.859-3.728,11.281-6.158,16.266c-2.442,5.012-5.27,9.582-8.483,13.705
					c-3.233,4.149-6.791,7.76-10.674,10.829c-3.906,3.085-8.142,5.622-12.711,7.605c-4.595,1.995-9.525,3.428-14.795,4.298
					c-5.297,0.875-10.939,1.178-16.924,0.905c-6.117-0.277-12.049-1.192-17.789-2.742c-5.766-1.56-11.331-3.761-16.688-6.607
					c-5.375-2.855-10.537-6.356-15.479-10.504c-4.951-4.155-9.677-8.954-14.171-14.394c-4.499-5.443-8.469-11.168-11.907-17.17
					c-3.437-6-6.338-12.27-8.702-18.801c-2.359-6.521-4.179-13.294-5.46-20.312c-1.276-6.998-2.016-14.23-2.22-21.688
					c-0.205-7.476,0.149-14.57,1.057-21.281c0.903-6.679,2.355-12.977,4.351-18.891c1.984-5.883,4.506-11.382,7.557-16.503
					c3.033-5.089,6.59-9.798,10.662-14.13c4.043-4.302,8.327-7.944,12.849-10.933c4.494-2.971,9.224-5.298,14.19-6.987
					c4.937-1.679,10.107-2.728,15.509-3.154C194.321,152.089,199.926,152.284,205.761,153.09z"/>
			</g>
		</g>
		<g>
			<g>
				<polygon fill="#8E53A6" points="378.968,365.948 446.462,158.958 450.65,206.196 387.04,427.501 				"/>
			</g>
			<g>
				<polygon fill="#9859B2" points="373.041,320.752 443.437,124.836 453.253,124.382 387.163,320.713 				"/>
			</g>
			<g>
				<polygon fill="#804B96" points="364.57,256.157 373.041,320.752 387.163,320.713 392.799,366.052 378.968,365.948 
					387.04,427.501 339.439,426.481 313.12,257.054 				"/>
			</g>
			
				<linearGradient id="SVGID_4_" gradientUnits="userSpaceOnUse" x1="302.1958" y1="223.4121" x2="490.6851" y2="223.4121" gradientTransform="matrix(0.9985 -0.0551 0.0551 0.9985 -2.5817 20.7547)">
				<stop  offset="0" style="stop-color:#DA80FF"/>
				<stop  offset="0.1251" style="stop-color:#D67EFD"/>
				<stop  offset="0.2602" style="stop-color:#C979F7"/>
				<stop  offset="0.4" style="stop-color:#B370EE"/>
				<stop  offset="0.5432" style="stop-color:#9563E0"/>
				<stop  offset="0.6889" style="stop-color:#6E53CF"/>
				<stop  offset="0.8367" style="stop-color:#3E40BA"/>
				<stop  offset="0.9835" style="stop-color:#0729A1"/>
				<stop  offset="1" style="stop-color:#00269E"/>
			</linearGradient>
			<polygon fill="url(#SVGID_4_)" points="491.791,73.87 455.334,75.956 442.211,111.011 439.186,76.879 403.568,78.917 
				313.12,257.054 364.57,256.157 373.041,320.752 396.451,255.601 409.156,255.379 387.163,320.713 392.799,366.052 
				426.68,255.073 441.278,254.818 			"/>
			<g>
				
					<linearGradient id="SVGID_5_" gradientUnits="userSpaceOnUse" x1="430.2808" y1="256.6367" x2="492.0742" y2="256.6367" gradientTransform="matrix(0.9985 -0.0551 0.0551 0.9985 -2.5817 20.7547)">
					<stop  offset="0" style="stop-color:#DA80FF"/>
					<stop  offset="0.1251" style="stop-color:#D67EFD"/>
					<stop  offset="0.2602" style="stop-color:#C979F7"/>
					<stop  offset="0.4" style="stop-color:#B370EE"/>
					<stop  offset="0.5432" style="stop-color:#9563E0"/>
					<stop  offset="0.6889" style="stop-color:#6E53CF"/>
					<stop  offset="0.8367" style="stop-color:#3E40BA"/>
					<stop  offset="0.9835" style="stop-color:#0729A1"/>
					<stop  offset="1" style="stop-color:#00269E"/>
				</linearGradient>
				<polygon fill="url(#SVGID_5_)" points="441.278,254.818 491.791,73.87 500.406,204.791 457.841,429.016 				"/>
			</g>
			<g>
				<polygon fill="#804B96" points="388.028,255.747 441.278,254.818 457.841,429.016 408.711,427.964 				"/>
			</g>
		</g>
		<g>
			<linearGradient id="SVGID_6_" gradientUnits="userSpaceOnUse" x1="502.6626" y1="264.8848" x2="712.6836" y2="264.8848">
				<stop  offset="0" style="stop-color:#00269E"/>
				<stop  offset="0.022" style="stop-color:#092AA2"/>
				<stop  offset="0.1668" style="stop-color:#4040BA"/>
				<stop  offset="0.3128" style="stop-color:#6F54CF"/>
				<stop  offset="0.457" style="stop-color:#9664E1"/>
				<stop  offset="0.5991" style="stop-color:#B370EE"/>
				<stop  offset="0.7383" style="stop-color:#C979F7"/>
				<stop  offset="0.8735" style="stop-color:#D67EFD"/>
				<stop  offset="1" style="stop-color:#DA80FF"/>
			</linearGradient>
			<path fill="url(#SVGID_6_)" d="M675.796,298.704c-0.198-0.958-0.456-1.773-0.773-2.446c-0.053-0.112-0.108-0.222-0.167-0.33
				c-0.058-0.108-0.118-0.212-0.181-0.314c-0.062-0.102-0.128-0.202-0.196-0.298c-0.067-0.098-0.136-0.191-0.208-0.282
				l-36.654-46.555c0.722-0.504,1.456-0.989,2.196-1.464c0.05-0.032,0.099-0.065,0.149-0.096c0.708-0.451,1.429-0.886,2.156-1.309
				c0.08-0.047,0.158-0.094,0.237-0.141c0.698-0.403,1.405-0.79,2.118-1.167c0.145-0.076,0.29-0.152,0.436-0.228
				c0.71-0.369,1.427-0.727,2.152-1.072c0.107-0.051,0.214-0.099,0.322-0.149c0.629-0.294,1.267-0.578,1.908-0.854
				c0.208-0.089,0.415-0.18,0.624-0.268c0.766-0.32,1.539-0.632,2.32-0.926c0.091-0.035,0.185-0.066,0.276-0.101
				c0.694-0.259,1.396-0.506,2.103-0.744c0.232-0.078,0.464-0.154,0.696-0.23c0.715-0.232,1.434-0.458,2.163-0.67
				c0.077-0.022,0.152-0.047,0.229-0.069c0.805-0.232,1.62-0.447,2.44-0.653c0.198-0.051,0.396-0.099,0.596-0.148
				c0.832-0.202,1.667-0.396,2.515-0.573c0.883-0.184,1.773-0.352,2.671-0.508c0.077-0.013,0.154-0.026,0.231-0.04
				c0.801-0.137,1.61-0.26,2.424-0.375c0.165-0.023,0.33-0.046,0.495-0.069c0.829-0.112,1.663-0.212,2.504-0.301
				c0.155-0.017,0.313-0.032,0.468-0.048c0.878-0.088,1.761-0.168,2.654-0.232c0.974-0.07,1.927-0.117,2.872-0.155
				c0.283-0.011,0.56-0.018,0.84-0.026c0.681-0.021,1.353-0.033,2.016-0.037c0.289-0.001,0.578-0.003,0.864-0.002
				c0.773,0.004,1.537,0.019,2.287,0.047c0.131,0.004,0.267,0.004,0.397,0.01c0.872,0.037,1.727,0.092,2.569,0.16
				c0.24,0.019,0.474,0.043,0.71,0.065c0.615,0.056,1.223,0.121,1.822,0.194c0.264,0.031,0.526,0.064,0.786,0.099
				c0.634,0.086,1.257,0.184,1.873,0.289c0.173,0.03,0.353,0.055,0.525,0.087c0.773,0.14,1.531,0.297,2.275,0.468
				c0.186,0.042,0.365,0.091,0.548,0.135c0.567,0.138,1.126,0.284,1.677,0.439c0.23,0.066,0.459,0.133,0.687,0.201
				c0.535,0.162,1.06,0.332,1.578,0.51c0.179,0.062,0.359,0.119,0.536,0.182c0.677,0.244,1.34,0.502,1.988,0.776
				c0.13,0.054,0.254,0.115,0.382,0.172c0.52,0.226,1.032,0.462,1.535,0.709c0.199,0.099,0.395,0.2,0.593,0.301
				c0.449,0.232,0.89,0.472,1.323,0.721c0.171,0.098,0.344,0.192,0.512,0.292c0.555,0.33,1.098,0.673,1.627,1.031
				c0.106,0.072,0.209,0.148,0.315,0.22c0.467,0.325,0.925,0.66,1.371,1.005c0.1,0.078,0.204,0.154,0.303,0.233
				c0.53,0.42,1.047,0.855,1.548,1.307c0.024,0.021,0.048,0.043,0.071,0.064c0.534,0.484,1.051,0.984,1.549,1.503
				c-44.577-46.367-89.154-92.733-133.733-139.101c-0.115-0.12-0.231-0.239-0.349-0.356c-0.117-0.118-0.235-0.235-0.355-0.35
				c-0.12-0.116-0.24-0.23-0.361-0.344c-0.035-0.031-0.071-0.064-0.106-0.095c-0.016-0.016-0.031-0.029-0.047-0.043
				c-0.071-0.066-0.142-0.131-0.215-0.197c-0.269-0.241-0.542-0.477-0.821-0.706c-0.041-0.034-0.083-0.066-0.125-0.099
				c-0.075-0.062-0.152-0.121-0.229-0.181c-0.165-0.132-0.328-0.266-0.496-0.393c-0.171-0.13-0.349-0.256-0.524-0.382
				c-0.077-0.056-0.154-0.114-0.232-0.169c-0.042-0.029-0.082-0.061-0.124-0.09c-0.298-0.208-0.601-0.411-0.91-0.609
				c-0.036-0.023-0.078-0.042-0.115-0.065c-0.059-0.038-0.114-0.079-0.174-0.117c-0.577-0.36-1.178-0.695-1.79-1.017
				c-0.154-0.081-0.313-0.159-0.47-0.238c-0.607-0.306-1.229-0.594-1.867-0.863c-0.085-0.036-0.164-0.081-0.25-0.116
				c-0.032-0.014-0.067-0.022-0.098-0.036c-0.599-0.244-1.208-0.475-1.833-0.688c-0.138-0.046-0.283-0.086-0.423-0.131
				c-0.185-0.061-0.373-0.116-0.561-0.174c-0.708-0.217-1.429-0.417-2.171-0.596c-0.081-0.02-0.155-0.046-0.237-0.064
				c-0.026-0.007-0.053-0.01-0.079-0.016c-0.828-0.192-1.68-0.355-2.549-0.5c-0.214-0.036-0.431-0.069-0.648-0.102
				c-0.259-0.039-0.512-0.086-0.775-0.122c-0.572-0.077-1.16-0.139-1.75-0.197c-0.063-0.006-0.121-0.017-0.184-0.023
				c-0.016-0.001-0.034-0.001-0.05-0.002c-0.928-0.086-1.883-0.14-2.854-0.179c-0.239-0.009-0.479-0.016-0.719-0.022
				c-0.991-0.027-1.994-0.038-3.028-0.016c-0.42,0.009-0.838,0.021-1.252,0.039c-0.209,0.008-0.416,0.021-0.625,0.032
				c-0.066,0.004-0.135,0.004-0.201,0.008c-0.043,0.002-0.087,0.006-0.131,0.009c-0.093,0.004-0.188,0.008-0.279,0.014
				c-0.41,0.025-0.818,0.054-1.222,0.087c-0.092,0.008-0.182,0.017-0.273,0.024c-0.043,0.005-0.088,0.006-0.132,0.01
				c-0.065,0.006-0.128,0.015-0.194,0.021c-0.203,0.019-0.407,0.036-0.609,0.056c-0.266,0.027-0.532,0.057-0.796,0.088
				c-0.105,0.012-0.208,0.026-0.313,0.039c-0.027,0.002-0.056,0.004-0.083,0.008c-0.027,0.003-0.053,0.008-0.081,0.012
				c-0.104,0.013-0.209,0.024-0.314,0.039c-0.263,0.035-0.523,0.071-0.783,0.108c-0.261,0.039-0.52,0.078-0.778,0.12
				c-0.436,0.071-0.869,0.146-1.298,0.226c-0.157,0.029-0.312,0.063-0.468,0.094c-0.137,0.028-0.274,0.054-0.411,0.083
				c-0.132,0.027-0.267,0.052-0.399,0.08c-0.424,0.09-0.843,0.186-1.26,0.288c-0.015,0.003-0.029,0.007-0.044,0.011
				c-0.059,0.014-0.117,0.03-0.176,0.045c-0.342,0.084-0.684,0.17-1.021,0.262c-0.161,0.043-0.318,0.091-0.478,0.137
				c-0.161,0.045-0.321,0.091-0.48,0.138c-0.131,0.04-0.265,0.074-0.395,0.114c-0.352,0.107-0.699,0.221-1.045,0.335
				c-0.06,0.02-0.123,0.036-0.182,0.057c-0.015,0.005-0.028,0.011-0.043,0.016c-0.02,0.007-0.04,0.012-0.059,0.019
				c-0.439,0.148-0.875,0.302-1.305,0.463c-0.079,0.029-0.155,0.063-0.235,0.092c-0.146,0.055-0.289,0.112-0.434,0.169
				c-0.204,0.08-0.41,0.157-0.611,0.239c-0.244,0.1-0.483,0.204-0.723,0.307c-0.068,0.03-0.137,0.059-0.205,0.088
				c-0.035,0.016-0.071,0.03-0.106,0.045c-0.341,0.15-0.68,0.305-1.017,0.464c-0.127,0.06-0.252,0.125-0.378,0.185
				c-0.094,0.046-0.188,0.092-0.282,0.138c-0.113,0.057-0.228,0.11-0.34,0.167c-0.331,0.168-0.658,0.339-0.984,0.515
				c-0.048,0.026-0.095,0.053-0.144,0.08c-0.019,0.01-0.038,0.02-0.058,0.03c-0.036,0.019-0.069,0.04-0.104,0.06
				c-0.188,0.104-0.376,0.208-0.562,0.313c-0.287,0.165-0.571,0.333-0.854,0.504c-0.019,0.011-0.038,0.024-0.058,0.036
				c-0.04,0.024-0.079,0.051-0.12,0.075c-0.222,0.136-0.443,0.273-0.663,0.413c-0.277,0.178-0.553,0.359-0.826,0.544
				c-0.261,0.176-0.52,0.355-0.775,0.537c-0.245,0.173-0.487,0.35-0.728,0.53c-0.004,0.003-0.01,0.006-0.015,0.01
				c-0.006,0.005-0.014,0.01-0.021,0.015c-0.252,0.188-0.502,0.38-0.75,0.574c-0.218,0.172-0.436,0.347-0.651,0.523
				c-0.016,0.012-0.031,0.022-0.046,0.035c-0.005,0.004-0.01,0.011-0.017,0.015c-0.008,0.007-0.016,0.013-0.024,0.02
				c-0.245,0.2-0.487,0.405-0.728,0.611c-0.205,0.176-0.406,0.354-0.607,0.535c-0.022,0.02-0.045,0.039-0.067,0.058
				c-0.014,0.013-0.028,0.025-0.042,0.037c-0.236,0.213-0.472,0.43-0.704,0.649c-0.188,0.176-0.373,0.356-0.558,0.538
				c-0.025,0.025-0.051,0.049-0.077,0.074c-0.019,0.019-0.039,0.036-0.057,0.055c-0.218,0.216-0.435,0.435-0.649,0.655
				c-0.188,0.195-0.375,0.392-0.561,0.591c-0.017,0.019-0.035,0.038-0.054,0.057c-0.008,0.008-0.016,0.016-0.022,0.024
				c-0.211,0.227-0.421,0.456-0.627,0.689c-0.207,0.232-0.411,0.467-0.615,0.705c-0.022,0.026-0.043,0.051-0.067,0.077
				c-0.021,0.026-0.043,0.052-0.064,0.079c-0.023,0.025-0.045,0.051-0.066,0.078c-0.022,0.025-0.044,0.052-0.066,0.078
				c-0.249,0.295-0.494,0.596-0.735,0.9c-0.142,0.177-0.279,0.359-0.418,0.54c-0.051,0.065-0.102,0.13-0.152,0.198
				c-0.048,0.061-0.097,0.121-0.143,0.184c-0.234,0.31-0.465,0.624-0.692,0.941c-0.151,0.211-0.299,0.426-0.446,0.641
				c-0.041,0.057-0.082,0.115-0.122,0.174c-0.034,0.049-0.069,0.097-0.103,0.146c-0.273,0.403-0.541,0.812-0.803,1.226
				c-0.088,0.138-0.171,0.28-0.257,0.419c-0.079,0.127-0.157,0.255-0.234,0.382c-0.092,0.153-0.187,0.302-0.278,0.454
				c-0.251,0.424-0.496,0.854-0.735,1.288c-0.024,0.042-0.046,0.085-0.068,0.128c-0.013,0.021-0.024,0.041-0.037,0.063
				c-0.029,0.054-0.055,0.111-0.084,0.166c-0.173,0.318-0.346,0.637-0.513,0.962c-0.126,0.247-0.245,0.5-0.368,0.75
				c-0.09,0.18-0.179,0.358-0.266,0.54c-0.32,0.67-0.631,1.35-0.928,2.042c-0.036,0.084-0.07,0.172-0.105,0.257
				c-0.26,0.617-0.509,1.245-0.75,1.879c-0.08,0.209-0.157,0.42-0.234,0.632c-0.074,0.201-0.152,0.399-0.224,0.603
				c-0.139,0.392-0.268,0.789-0.398,1.188c-0.037,0.112-0.08,0.222-0.117,0.336c-0.012,0.037-0.021,0.075-0.033,0.113
				c-0.237,0.739-0.459,1.488-0.672,2.249c-0.055,0.196-0.106,0.396-0.16,0.593c-0.162,0.6-0.316,1.206-0.461,1.819
				c-0.054,0.226-0.109,0.45-0.161,0.675c-0.032,0.14-0.067,0.278-0.098,0.418c-0.146,0.656-0.282,1.32-0.412,1.991
				c-0.011,0.058-0.02,0.117-0.03,0.174c-0.146,0.769-0.278,1.548-0.402,2.336c-0.017,0.106-0.038,0.207-0.054,0.313
				c-0.02,0.131-0.034,0.265-0.053,0.396c-0.102,0.689-0.195,1.385-0.281,2.087c-0.022,0.178-0.046,0.354-0.066,0.534
				c-0.01,0.078-0.02,0.154-0.029,0.232c-0.088,0.789-0.164,1.589-0.232,2.396c-0.016,0.203-0.03,0.408-0.046,0.61
				c-0.055,0.715-0.103,1.435-0.142,2.162c-0.013,0.255-0.028,0.508-0.04,0.764c-0.042,0.918-0.077,1.844-0.095,2.783l-1.593,84.059
				l95.125,193.354l6.54-110.95L666.43,421.72l9.554-110.589c0.156-1.801,0.253-3.463,0.291-4.984
				c0.038-1.522,0.018-2.904-0.062-4.144C676.133,300.761,675.994,299.662,675.796,298.704z"/>
			<g>
				<path fill="#A15FBC" d="M663.255,237.618c0.919-0.191,1.847-0.368,2.784-0.529c0.937-0.162,1.882-0.307,2.836-0.439
					c0.954-0.131,1.917-0.247,2.888-0.348c0.971-0.101,1.95-0.187,2.939-0.257c4.892-0.349,9.417-0.296,13.576,0.154
					c4.146,0.448,7.928,1.292,11.348,2.531c3.408,1.232,6.457,2.854,9.149,4.866c2.682,2.003,5.009,4.393,6.982,7.164
					c1.967,2.763,3.605,5.935,4.915,9.512c1.305,3.563,2.285,7.528,2.942,11.895c0.654,4.346,0.987,9.088,1.001,14.222
					c0.015,5.112-0.285,10.611-0.899,16.496L711.95,415.467l-45.521,6.253l9.554-110.589c0.156-1.801,0.253-3.463,0.291-4.984
					c0.038-1.522,0.018-2.904-0.062-4.144c-0.08-1.242-0.218-2.341-0.417-3.298c-0.198-0.958-0.456-1.773-0.773-2.446
					c-0.318-0.672-0.719-1.25-1.203-1.732c-0.484-0.483-1.05-0.87-1.699-1.161c-0.65-0.293-1.382-0.49-2.197-0.591
					c-0.816-0.102-1.715-0.107-2.697-0.018c-0.14,0.013-0.281,0.027-0.419,0.044c-0.14,0.019-0.278,0.037-0.415,0.058
					c-0.136,0.021-0.272,0.044-0.407,0.071c-0.135,0.025-0.268,0.053-0.4,0.083c-1.655,0.373-3.135,1.077-4.439,2.112
					c-1.303,1.034-2.43,2.4-3.378,4.095c-0.948,1.693-1.718,3.713-2.308,6.06c-0.591,2.342-1.002,5.007-1.236,7.992l-1.789,22.917
					l13.911-1.471l-3.925,47.023l-13.673,1.68l-3.215,41.165l-47.747,6.551l6.765-114.777c0.343-5.824,1.029-11.381,2.057-16.665
					c1.032-5.303,2.408-10.325,4.128-15.063c1.726-4.75,3.795-9.208,6.209-13.37c2.417-4.168,5.177-8.037,8.278-11.602
					c2.5-2.871,5.172-5.486,8.015-7.844c2.841-2.358,5.852-4.457,9.031-6.296c3.174-1.839,6.514-3.417,10.017-4.735
					C655.785,239.469,659.441,238.413,663.255,237.618z"/>
			</g>
		</g>
		<g>
			<g>
				<path fill="#A963C5" d="M1250.471,146.174l-11.05,53.093l-24.62,0.678c-1.697,0.047-3.225,0.28-4.582,0.702
					c-1.359,0.422-2.543,1.032-3.556,1.83c-1.012,0.798-1.848,1.786-2.508,2.958c-0.66,1.173-1.144,2.533-1.449,4.078
					c-0.18,0.908-0.294,1.745-0.344,2.51c-0.051,0.764-0.036,1.456,0.044,2.077c0.08,0.621,0.224,1.168,0.435,1.645
					c0.207,0.476,0.481,0.881,0.819,1.213c0.338,0.334,0.763,0.621,1.276,0.861c0.512,0.238,1.112,0.43,1.8,0.575
					c0.687,0.144,1.46,0.241,2.319,0.291c0.856,0.051,1.802,0.054,2.832,0.011l21.275-0.886l-8.244,39.747l-25.105,1.799
					c-0.87,0.062-1.686,0.165-2.447,0.306c-0.763,0.142-1.473,0.322-2.126,0.543c-0.654,0.22-1.255,0.481-1.8,0.781
					c-0.547,0.298-1.036,0.638-1.471,1.016c-0.438,0.379-0.841,0.815-1.207,1.308c-0.369,0.494-0.703,1.045-1.004,1.655
					c-0.3,0.607-0.567,1.274-0.8,1.997c-0.233,0.721-0.432,1.502-0.597,2.338c-0.188,0.944-0.311,1.803-0.372,2.577
					c-0.06,0.773-0.058,1.462,0.006,2.064c0.065,0.604,0.192,1.122,0.382,1.555c0.189,0.433,0.443,0.782,0.756,1.045
					c0.315,0.264,0.735,0.483,1.258,0.655c0.523,0.173,1.149,0.302,1.88,0.385c0.729,0.083,1.561,0.121,2.496,0.114
					c0.935-0.007,1.97-0.059,3.107-0.155l25.716-2.19l-10.213,49.07l-29.937,3.641c-3.607,0.438-6.965,0.569-10.067,0.388
					c-3.121-0.182-5.983-0.678-8.586-1.491c-2.616-0.817-4.969-1.954-7.055-3.412c-2.097-1.465-3.923-3.255-5.479-5.371
					c-1.565-2.123-2.832-4.544-3.804-7.265c-0.977-2.732-1.65-5.765-2.026-9.099c-0.376-3.344-0.447-6.991-0.214-10.941
					c0.235-3.962,0.777-8.228,1.627-12.794l13.745-73.861c0.858-4.612,1.917-8.983,3.174-13.108c1.26-4.131,2.72-8.012,4.376-11.639
					c1.659-3.629,3.514-6.999,5.562-10.108c2.049-3.107,4.291-5.95,6.723-8.528c2.431-2.574,4.991-4.822,7.683-6.742
					c2.684-1.916,5.494-3.504,8.429-4.761c2.924-1.255,5.969-2.184,9.131-2.786c3.149-0.599,6.411-0.875,9.784-0.829
					L1250.471,146.174z"/>
			</g>
			
				<linearGradient id="SVGID_7_" gradientUnits="userSpaceOnUse" x1="976.9453" y1="198.0869" x2="1261.7871" y2="198.0869" gradientTransform="matrix(0.9934 0.1151 -0.1151 0.9934 14.7586 -152.2327)">
				<stop  offset="0" style="stop-color:#00269E"/>
				<stop  offset="0.09" style="stop-color:#2A37B0"/>
				<stop  offset="0.2059" style="stop-color:#584AC5"/>
				<stop  offset="0.326" style="stop-color:#805BD7"/>
				<stop  offset="0.4486" style="stop-color:#A168E5"/>
				<stop  offset="0.5744" style="stop-color:#BA73F1"/>
				<stop  offset="0.7047" style="stop-color:#CC7AF9"/>
				<stop  offset="0.8425" style="stop-color:#D77FFD"/>
				<stop  offset="1" style="stop-color:#DA80FF"/>
			</linearGradient>
			<path fill="url(#SVGID_7_)" d="M1162.358,200.38c0.084-0.389,0.176-0.77,0.264-1.154c0.196-0.869,0.397-1.729,0.611-2.579
				c0.11-0.443,0.224-0.884,0.339-1.324c0.21-0.796,0.427-1.585,0.651-2.365c0.119-0.421,0.238-0.845,0.363-1.261
				c0.26-0.866,0.527-1.717,0.804-2.561c0.017-0.053,0.033-0.106,0.05-0.159c12.884,9.448,25.767,18.897,38.649,28.345
				c0.003,0.002,0.008,0.006,0.011,0.008c0.004,0.003,0.009,0.006,0.013,0.01c0.005,0.002,0.008,0.004,0.012,0.008
				c0.005,0.003,0.008,0.005,0.012,0.007c0.065,0.048,0.134,0.094,0.205,0.139c0.07,0.045,0.144,0.088,0.22,0.13
				c0.035,0.021,0.074,0.041,0.113,0.06c0.011,0.007,0.024,0.014,0.038,0.021c0.026,0.015,0.053,0.028,0.081,0.042
				c0.078,0.039,0.159,0.079,0.244,0.115c0.087,0.038,0.18,0.071,0.271,0.108c0.034,0.013,0.062,0.028,0.095,0.042
				c0.017,0.007,0.038,0.011,0.057,0.018c0.025,0.01,0.052,0.022,0.078,0.031c0.174,0.063,0.357,0.119,0.548,0.173
				c0.026,0.007,0.058,0.014,0.087,0.021c0.051,0.015,0.105,0.027,0.16,0.041c0.113,0.029,0.227,0.06,0.348,0.085
				c0.111,0.024,0.231,0.043,0.348,0.066c0.041,0.007,0.076,0.016,0.113,0.024c0.022,0.004,0.05,0.006,0.072,0.009
				c0.035,0.006,0.071,0.015,0.109,0.021c0.151,0.024,0.319,0.041,0.481,0.061c0.148,0.02,0.29,0.041,0.444,0.057
				c0.026,0.003,0.047,0.007,0.07,0.01c0.195,0.019,0.406,0.027,0.609,0.041c0.127,0.008,0.245,0.022,0.377,0.028
				c0.016,0,0.033,0,0.05,0c0.021,0.001,0.038,0.003,0.058,0.003c0.249,0.011,0.516,0.012,0.777,0.015
				c0.129,0.001,0.251,0.008,0.383,0.008c0.01,0,0.02,0,0.03,0c0.411-0.001,0.84-0.012,1.284-0.03l21.275-0.886l-61.547-43.305
				c0.019-0.034,0.036-0.069,0.055-0.104c0.075-0.134,0.147-0.268,0.224-0.403c0.407-0.736,0.824-1.462,1.253-2.173
				c0.045-0.075,0.091-0.149,0.135-0.225c0.444-0.732,0.897-1.452,1.359-2.156c0.053-0.083,0.107-0.162,0.164-0.243
				c0.461-0.699,0.933-1.384,1.415-2.054c0.049-0.067,0.097-0.132,0.145-0.199c0.492-0.676,0.99-1.339,1.501-1.988
				c0.047-0.061,0.095-0.122,0.145-0.182c0.51-0.645,1.028-1.274,1.56-1.891c0.041-0.048,0.083-0.098,0.124-0.146
				c0.563-0.65,1.136-1.288,1.722-1.908c0.556-0.591,1.124-1.16,1.695-1.717c0.074-0.072,0.147-0.146,0.223-0.219
				c0.547-0.526,1.101-1.035,1.661-1.529c0.111-0.098,0.222-0.196,0.334-0.293c0.551-0.481,1.108-0.948,1.672-1.397
				c0.148-0.119,0.301-0.231,0.451-0.348c0.456-0.355,0.914-0.702,1.376-1.038c0.208-0.148,0.413-0.293,0.62-0.437
				c0.428-0.3,0.858-0.59,1.293-0.873c0.197-0.131,0.396-0.263,0.598-0.388c0.599-0.377,1.201-0.742,1.81-1.088
				c0.027-0.015,0.052-0.031,0.08-0.046c0.04-0.022,0.081-0.043,0.12-0.065c0.767-0.428,1.539-0.828,2.319-1.206
				c0.267-0.129,0.536-0.247,0.802-0.37c0.573-0.265,1.148-0.519,1.732-0.757c0.296-0.122,0.594-0.24,0.893-0.354
				c0.591-0.227,1.189-0.439,1.791-0.64c0.269-0.091,0.536-0.187,0.808-0.271c0.864-0.27,1.736-0.522,2.62-0.74
				c0.034-0.009,0.07-0.015,0.106-0.023c0.854-0.208,1.717-0.387,2.587-0.545c0.278-0.051,0.562-0.091,0.844-0.137
				c0.639-0.105,1.283-0.199,1.934-0.277c0.318-0.038,0.639-0.074,0.959-0.105c0.648-0.066,1.3-0.115,1.959-0.154
				c0.294-0.019,0.589-0.041,0.887-0.053c0.943-0.039,1.894-0.06,2.854-0.046l34.028,0.459L1042.757,24.32l-27.854-2.596
				c-0.778-0.073-1.548-0.119-2.311-0.153c-0.24-0.01-0.478-0.012-0.715-0.02c-0.53-0.013-1.055-0.019-1.575-0.014
				c-0.13,0.001-0.263-0.006-0.39-0.004c-0.132,0.002-0.257,0.016-0.386,0.02c-0.521,0.015-1.034,0.042-1.545,0.078
				c-0.224,0.016-0.446,0.027-0.67,0.047c-0.093,0.008-0.189,0.01-0.281,0.02c-1.348,0.127-2.661,0.332-3.941,0.603
				c-0.204,0.043-0.408,0.096-0.612,0.142c-0.478,0.11-0.951,0.229-1.42,0.359c-0.115,0.033-0.234,0.056-0.35,0.09
				c-0.118,0.033-0.232,0.079-0.349,0.114c-0.175,0.053-0.353,0.098-0.528,0.154c-0.279,0.091-0.55,0.195-0.825,0.293
				c-0.204,0.072-0.412,0.142-0.618,0.219c-0.606,0.229-1.207,0.474-1.798,0.741c-0.026,0.012-0.054,0.021-0.078,0.032
				c-0.006,0.001-0.008,0.004-0.013,0.006c-0.02,0.008-0.038,0.019-0.059,0.028c-0.396,0.183-0.794,0.374-1.187,0.573
				c-0.072,0.038-0.141,0.079-0.211,0.115c-0.151,0.077-0.294,0.159-0.442,0.238c-0.191,0.105-0.385,0.204-0.577,0.313
				c-0.145,0.082-0.286,0.172-0.427,0.256c-0.086,0.051-0.175,0.097-0.261,0.148c-0.069,0.04-0.135,0.088-0.202,0.13
				c-0.104,0.064-0.211,0.123-0.313,0.188c-0.249,0.158-0.495,0.326-0.739,0.493c-0.111,0.073-0.224,0.144-0.332,0.219
				c-0.035,0.024-0.069,0.045-0.104,0.069c-0.292,0.203-0.579,0.412-0.865,0.626c-0.1,0.074-0.198,0.154-0.298,0.231
				c-0.081,0.063-0.166,0.126-0.246,0.19c-0.103,0.08-0.204,0.156-0.308,0.237c-0.278,0.225-0.557,0.456-0.832,0.691
				c-0.034,0.03-0.068,0.062-0.104,0.092c-0.056,0.049-0.113,0.101-0.169,0.151c-0.182,0.159-0.362,0.316-0.544,0.48
				c-0.06,0.055-0.119,0.11-0.179,0.166c-0.061,0.054-0.121,0.11-0.18,0.166c-0.059,0.057-0.119,0.113-0.178,0.169
				c-0.059,0.056-0.119,0.112-0.178,0.17c-0.178,0.171-0.353,0.344-0.525,0.519c-0.174,0.176-0.347,0.352-0.518,0.532
				c-0.075,0.082-0.149,0.163-0.227,0.245c-0.029,0.031-0.059,0.063-0.088,0.095c-0.064,0.07-0.129,0.136-0.19,0.205
				c-0.167,0.184-0.333,0.37-0.496,0.558c-0.157,0.178-0.313,0.361-0.466,0.545c-0.028,0.036-0.061,0.071-0.091,0.106
				c-0.021,0.024-0.04,0.048-0.061,0.072c-0.204,0.244-0.404,0.492-0.602,0.743c-0.151,0.192-0.298,0.386-0.447,0.582
				c-0.024,0.035-0.051,0.068-0.078,0.102c-0.019,0.027-0.039,0.053-0.061,0.08c-0.192,0.257-0.382,0.518-0.569,0.782
				c-0.139,0.198-0.273,0.398-0.412,0.599c-0.019,0.029-0.041,0.056-0.061,0.084c-0.01,0.015-0.018,0.03-0.027,0.043
				c-0.024,0.036-0.049,0.069-0.071,0.104c-0.188,0.281-0.374,0.564-0.554,0.851c-0.118,0.183-0.23,0.37-0.344,0.556
				c-0.035,0.056-0.068,0.112-0.104,0.167c-0.03,0.05-0.063,0.098-0.092,0.149c-0.178,0.294-0.352,0.592-0.52,0.893
				c-0.088,0.153-0.172,0.311-0.259,0.466c-0.054,0.097-0.106,0.193-0.16,0.29c-0.05,0.095-0.103,0.187-0.154,0.283
				c-0.187,0.351-0.369,0.706-0.549,1.066c-0.038,0.074-0.072,0.151-0.107,0.225c-0.05,0.098-0.097,0.197-0.146,0.296
				c-0.092,0.19-0.184,0.379-0.275,0.572c-0.171,0.368-0.339,0.741-0.502,1.118c-0.004,0.004-0.004,0.009-0.006,0.014
				c-0.002,0.001-0.003,0.002-0.002,0.002c-0.004,0.01-0.008,0.018-0.011,0.026c-0.212,0.489-0.42,0.982-0.619,1.485
				c-0.034,0.085-0.064,0.174-0.099,0.259c-0.077,0.198-0.151,0.397-0.226,0.596c-0.09,0.24-0.185,0.476-0.271,0.718
				c-0.067,0.185-0.128,0.375-0.193,0.562c-0.078,0.218-0.151,0.436-0.228,0.656c-0.045,0.135-0.093,0.266-0.137,0.402
				c-0.113,0.344-0.219,0.696-0.325,1.047c-0.051,0.16-0.104,0.318-0.15,0.48c-0.015,0.047-0.029,0.091-0.044,0.139
				c-0.047,0.159-0.087,0.328-0.131,0.488c-0.138,0.483-0.28,0.962-0.408,1.458c-0.038,0.146-0.072,0.298-0.107,0.446
				c-0.027,0.104-0.058,0.202-0.084,0.306c-0.045,0.181-0.081,0.372-0.125,0.554c-0.137,0.577-0.27,1.161-0.395,1.751
				c-0.035,0.169-0.08,0.333-0.113,0.503c-0.031,0.143-0.053,0.294-0.082,0.437c-0.12,0.607-0.233,1.224-0.339,1.846
				c-0.038,0.213-0.082,0.419-0.117,0.635c-0.014,0.08-0.024,0.167-0.037,0.249c-0.146,0.912-0.281,1.835-0.403,2.778l-6.905,54.266
				c-0.429,3.378-0.629,6.558-0.597,9.537c0.028,2.973,0.288,5.748,0.775,8.322c0.487,2.567,1.198,4.937,2.137,7.108
				c0.938,2.164,2.097,4.13,3.478,5.898c0.183,0.234,0.372,0.467,0.563,0.694c0.19,0.227,0.384,0.45,0.582,0.67
				c0.199,0.219,0.4,0.434,0.604,0.645c0.206,0.212,0.413,0.419,0.626,0.622c59.853,57.388,119.7,114.77,179.551,172.158
				c-0.246-0.235-0.487-0.476-0.723-0.723s-0.468-0.5-0.694-0.758c-0.226-0.26-0.447-0.522-0.666-0.794
				c-0.217-0.27-0.428-0.546-0.636-0.829c-1.565-2.123-2.832-4.544-3.804-7.265c-0.977-2.732-1.65-5.765-2.026-9.099
				c-0.376-3.344-0.447-6.991-0.214-10.941c0.235-3.962,0.777-8.228,1.627-12.794l5.832-31.344l35.465,29.81
				c0.023,0.02,0.047,0.037,0.071,0.056c0.022,0.019,0.046,0.037,0.071,0.054c0.023,0.018,0.049,0.036,0.074,0.054
				c0.025,0.016,0.051,0.033,0.076,0.05c0.055,0.034,0.109,0.066,0.166,0.098c0.026,0.016,0.055,0.029,0.081,0.044
				c0.008,0.004,0.017,0.009,0.025,0.013c0.024,0.012,0.046,0.024,0.069,0.036c0.061,0.03,0.125,0.059,0.189,0.087
				c0.066,0.029,0.132,0.055,0.201,0.083c0.054,0.02,0.115,0.037,0.174,0.057c0.022,0.007,0.036,0.018,0.059,0.024
				c0.021,0.008,0.049,0.012,0.068,0.018c0.055,0.019,0.104,0.037,0.16,0.053c0.162,0.047,0.334,0.091,0.513,0.13
				c0.028,0.006,0.058,0.01,0.085,0.016c0.039,0.009,0.082,0.015,0.122,0.023c0.119,0.023,0.236,0.048,0.362,0.068
				c0.169,0.027,0.346,0.049,0.527,0.071c0.015,0.001,0.025,0.004,0.042,0.006c0.004,0,0.01,0,0.017,0.001
				c0.01,0.001,0.021,0.004,0.036,0.005c0.206,0.022,0.442,0.034,0.667,0.05c0.16,0.01,0.308,0.028,0.475,0.035
				c0.009,0,0.015,0,0.022,0.002c0.215,0.009,0.457,0.008,0.688,0.01c0.199,0.004,0.382,0.013,0.592,0.011c0.007,0,0.015,0,0.021,0
				c0.004,0,0.008,0,0.013,0c0.289-0.002,0.603-0.017,0.911-0.028c0.182-0.005,0.352-0.007,0.541-0.017c0.004,0,0.006,0,0.011,0
				c0.512-0.026,1.05-0.063,1.611-0.111l25.716-2.19l-65.529-52.214l3.521-18.921
				C1161.823,202.915,1162.086,201.642,1162.358,200.38z"/>
		</g>
		<g>
			<linearGradient id="SVGID_8_" gradientUnits="userSpaceOnUse" x1="921.1406" y1="213.084" x2="1019.7295" y2="213.084">
				<stop  offset="0" style="stop-color:#DA80FF"/>
				<stop  offset="0.1251" style="stop-color:#D67EFD"/>
				<stop  offset="0.2602" style="stop-color:#C979F7"/>
				<stop  offset="0.4" style="stop-color:#B370EE"/>
				<stop  offset="0.5432" style="stop-color:#9563E0"/>
				<stop  offset="0.6889" style="stop-color:#6E53CF"/>
				<stop  offset="0.8367" style="stop-color:#3E40BA"/>
				<stop  offset="0.9835" style="stop-color:#0729A1"/>
				<stop  offset="1" style="stop-color:#00269E"/>
			</linearGradient>
			<path fill="url(#SVGID_8_)" d="M1017.942,193.845c-0.611-0.114-1.191-0.241-1.75-0.381c-0.045-0.011-0.09-0.021-0.133-0.033
				c-0.544-0.138-1.061-0.287-1.555-0.451c-0.036-0.011-0.07-0.024-0.106-0.036c-0.499-0.167-0.978-0.348-1.426-0.542
				c-0.002-0.002-0.007-0.003-0.01-0.005c-0.466-0.202-0.905-0.419-1.315-0.65c-0.003-0.001-0.006-0.004-0.01-0.005
				c-0.402-0.227-0.777-0.469-1.126-0.722c-0.016-0.01-0.03-0.021-0.044-0.033c-0.312-0.229-0.598-0.471-0.863-0.723
				c-0.047-0.043-0.098-0.086-0.142-0.13c-0.26-0.254-0.496-0.519-0.712-0.794c-0.045-0.057-0.087-0.114-0.128-0.171
				c-0.216-0.288-0.413-0.583-0.583-0.893c-0.186-0.343-0.356-0.723-0.51-1.138c-0.005-0.01-0.008-0.022-0.012-0.034
				c-0.152-0.413-0.289-0.858-0.407-1.342c-0.001,0-0.001-0.001-0.001-0.002c-0.241-0.977-0.416-2.099-0.522-3.363
				c-0.001-0.013-0.002-0.025-0.003-0.038c-0.052-0.631-0.089-1.296-0.109-1.999c0-0.001,0-0.002,0-0.003
				c-0.019-0.674-0.021-1.385-0.009-2.125c0.001-0.068,0.002-0.133,0.003-0.201c0.014-0.731,0.042-1.493,0.086-2.288
				c0.002-0.04,0.002-0.076,0.006-0.117c0.046-0.843,0.109-1.721,0.189-2.637l8.421-96.163l-34.763-5.943l-59.269,27.913
				l52.88,9.287l-12.11,145.899c-0.017,0.184-0.031,0.366-0.046,0.548c-0.015,0.181-0.029,0.363-0.041,0.543
				c-0.013,0.18-0.026,0.36-0.04,0.539c-0.013,0.177-0.023,0.354-0.036,0.531c-0.039,0.593-0.074,1.177-0.103,1.75
				c-0.001,0.014-0.002,0.029-0.002,0.042c-0.011,0.196-0.017,0.385-0.026,0.578c-0.018,0.356-0.035,0.716-0.048,1.065
				c-0.001,0.062-0.002,0.12-0.004,0.182c-0.008,0.195-0.012,0.385-0.018,0.578c-0.008,0.287-0.019,0.581-0.022,0.861
				c-0.003,0.105-0.003,0.206-0.004,0.311c-0.001,0.069-0.004,0.142-0.005,0.21c-0.001,0.133,0,0.256-0.001,0.387
				c-0.001,0.216-0.006,0.437-0.006,0.647c0,0.165,0.003,0.323,0.004,0.487c0.001,0.121,0.002,0.241,0.002,0.359
				c0.001,0.095,0.001,0.195,0.003,0.29c0.007,0.372,0.014,0.738,0.025,1.099c0.001,0.016,0.002,0.031,0.003,0.048
				c0.001,0.085,0.007,0.168,0.01,0.253c0.01,0.255,0.018,0.512,0.029,0.76c0.006,0.128,0.015,0.251,0.022,0.376
				c0.007,0.132,0.015,0.264,0.023,0.395c0.005,0.084,0.01,0.17,0.015,0.254c0.019,0.276,0.039,0.546,0.063,0.814
				c0.004,0.059,0.008,0.115,0.014,0.174c0.002,0.024,0.004,0.051,0.007,0.075c0.002,0.039,0.007,0.072,0.011,0.11
				c0.014,0.143,0.026,0.289,0.041,0.43c0.026,0.259,0.053,0.514,0.084,0.765c0.002,0.021,0.006,0.04,0.008,0.062
				c0.006,0.039,0.011,0.076,0.016,0.114c0.023,0.189,0.047,0.379,0.073,0.565c0.03,0.217,0.063,0.43,0.096,0.642
				c0.002,0.005,0.004,0.011,0.005,0.018c0.001,0.017,0.004,0.033,0.006,0.049c0.03,0.188,0.063,0.373,0.095,0.555
				c0.036,0.204,0.074,0.405,0.114,0.602c0.002,0.007,0.003,0.014,0.005,0.021c0.005,0.028,0.013,0.053,0.018,0.081
				c0.032,0.162,0.065,0.324,0.101,0.481c0.045,0.192,0.088,0.382,0.135,0.567c0.002,0.009,0.004,0.019,0.008,0.027
				c0.002,0.008,0.004,0.016,0.005,0.023c0.005,0.017,0.009,0.032,0.015,0.05c0.037,0.151,0.074,0.3,0.117,0.446
				c0.049,0.179,0.1,0.354,0.151,0.528c0.003,0.008,0.005,0.016,0.008,0.023c0.01,0.031,0.021,0.06,0.03,0.089
				c0.041,0.133,0.081,0.265,0.125,0.394c0.049,0.142,0.099,0.278,0.149,0.417c0.02,0.053,0.036,0.107,0.057,0.159
				c0.005,0.014,0.01,0.029,0.015,0.043c0.078,0.201,0.155,0.396,0.237,0.586c0.023,0.054,0.048,0.104,0.072,0.157
				c0.025,0.06,0.053,0.118,0.079,0.176c0.034,0.074,0.066,0.149,0.101,0.219c0.087,0.179,0.177,0.353,0.269,0.52
				c0.162,0.297,0.34,0.585,0.529,0.868c0.018,0.026,0.029,0.053,0.047,0.079c0.044,0.064,0.098,0.125,0.143,0.189
				c0.137,0.193,0.277,0.383,0.428,0.57c0.035,0.045,0.066,0.094,0.104,0.138c0.041,0.053,0.093,0.101,0.137,0.152
				c0.149,0.176,0.306,0.349,0.469,0.52c0.056,0.059,0.104,0.119,0.161,0.179c0.033,0.031,0.067,0.06,0.1,0.09
				c0.038,0.039,0.073,0.081,0.112,0.118c0.158,0.154,0.331,0.303,0.502,0.452c0.052,0.046,0.098,0.096,0.151,0.143
				c0.016,0.012,0.031,0.023,0.046,0.037c0.023,0.02,0.047,0.038,0.069,0.057c0.119,0.098,0.236,0.196,0.359,0.293
				c0.091,0.07,0.186,0.14,0.277,0.209c0.049,0.035,0.094,0.072,0.143,0.107c0.025,0.02,0.051,0.04,0.076,0.059
				c0.171,0.123,0.346,0.244,0.522,0.363c0.044,0.029,0.089,0.056,0.133,0.085c0.049,0.031,0.098,0.063,0.148,0.095
				c0.088,0.057,0.175,0.115,0.266,0.171c0.174,0.106,0.353,0.211,0.533,0.316c0.007,0.002,0.012,0.008,0.018,0.01
				c0.002,0.002,0.004,0.003,0.007,0.003c0.011,0.007,0.021,0.014,0.034,0.02c0.201,0.116,0.407,0.228,0.618,0.338
				c0.073,0.039,0.15,0.075,0.223,0.113c0.063,0.032,0.125,0.063,0.188,0.094c0.078,0.039,0.155,0.08,0.234,0.118
				c0.22,0.106,0.442,0.209,0.672,0.311c0.004,0.003,0.01,0.005,0.016,0.008c0.031,0.014,0.063,0.025,0.093,0.041
				c0.232,0.102,0.466,0.202,0.707,0.3c0.063,0.024,0.125,0.047,0.187,0.072c0.105,0.042,0.214,0.083,0.321,0.125
				c0.117,0.043,0.229,0.09,0.347,0.133c0.137,0.051,0.281,0.099,0.421,0.147c0.065,0.024,0.129,0.049,0.196,0.073
				c0.036,0.013,0.074,0.022,0.108,0.035c0.058,0.019,0.108,0.039,0.166,0.057c0.303,0.103,0.61,0.2,0.925,0.295
				c0.006,0.002,0.011,0.003,0.017,0.005c0.023,0.007,0.048,0.013,0.069,0.02c0.289,0.086,0.582,0.172,0.881,0.253
				c0.07,0.02,0.143,0.037,0.215,0.056c0.113,0.03,0.229,0.059,0.345,0.09c0.148,0.038,0.293,0.078,0.443,0.115
				c0.162,0.04,0.328,0.076,0.492,0.115c0.112,0.026,0.224,0.053,0.334,0.078c0.072,0.017,0.142,0.034,0.213,0.051
				c0.353,0.077,0.712,0.151,1.076,0.224l2.706,0.534l-5.926,69.102l39.842-115.08l4.115-46.028L1017.942,193.845z"/>
			<g>
				<path fill="#A461C0" d="M974.021,108.084l-12.11,145.899c-0.233,2.798-0.363,5.377-0.395,7.737
					c-0.031,2.358,0.04,4.5,0.213,6.42c0.171,1.922,0.444,3.626,0.818,5.112c0.372,1.487,0.849,2.755,1.425,3.807
					c0.573,1.051,1.317,2.019,2.229,2.902c0.912,0.883,1.993,1.682,3.244,2.396c1.253,0.716,2.672,1.348,4.263,1.896
					s3.352,1.011,5.284,1.394l2.706,0.534l-5.926,69.102l-13.761-2.833c-4.706-0.97-9.108-2.348-13.211-4.14
					c-4.098-1.79-7.896-3.99-11.396-6.603c-3.496-2.611-6.696-5.635-9.602-9.07c-2.901-3.436-5.512-7.284-7.823-11.549
					c-2.318-4.264-4.282-8.826-5.891-13.687c-1.611-4.864-2.868-10.03-3.772-15.499c-0.903-5.474-1.453-11.253-1.649-17.342
					c-0.194-6.095-0.036-12.501,0.479-19.221l11.993-156.543L974.021,108.084z"/>
			</g>
		</g>
		<g>
			<linearGradient id="SVGID_9_" gradientUnits="userSpaceOnUse" x1="1305.2236" y1="237.1182" x2="1543.3232" y2="237.1182">
				<stop  offset="0" style="stop-color:#DA80FF"/>
				<stop  offset="0.0983" style="stop-color:#D37DFC"/>
				<stop  offset="0.2405" style="stop-color:#C075F3"/>
				<stop  offset="0.4093" style="stop-color:#A068E5"/>
				<stop  offset="0.5987" style="stop-color:#7456D2"/>
				<stop  offset="0.8023" style="stop-color:#3D3FB9"/>
				<stop  offset="1" style="stop-color:#00269E"/>
			</linearGradient>
			<path fill="url(#SVGID_9_)" d="M1543.322,179.381c-0.001-0.221-0.002-0.44-0.003-0.659c-0.002-0.147-0.004-0.292-0.006-0.439
				c-0.002-0.14-0.006-0.277-0.007-0.417c-0.005-0.278-0.006-0.559-0.013-0.834c-0.012-0.56-0.028-1.115-0.049-1.666
				c-0.004-0.104-0.01-0.207-0.012-0.311c-0.006-0.13-0.012-0.258-0.018-0.388c-0.013-0.314-0.025-0.63-0.04-0.94
				c-0.027-0.543-0.058-1.082-0.093-1.615c-0.005-0.068-0.01-0.136-0.016-0.204c-0.007-0.108-0.014-0.214-0.022-0.323
				c-0.026-0.364-0.051-0.729-0.079-1.089c-0.043-0.534-0.09-1.063-0.141-1.589c-0.002-0.021-0.004-0.043-0.006-0.064
				c-0.002-0.017-0.003-0.034-0.006-0.051c-0.004-0.043-0.009-0.084-0.013-0.127c-0.045-0.442-0.091-0.884-0.14-1.319
				c-0.053-0.469-0.109-0.932-0.17-1.394c-0.004-0.032-0.006-0.065-0.01-0.098c-0.004-0.015-0.006-0.029-0.007-0.043
				c-0.073-0.565-0.151-1.125-0.234-1.679c-0.041-0.274-0.087-0.543-0.131-0.815c-0.022-0.143-0.046-0.287-0.069-0.429
				c-0.021-0.133-0.041-0.27-0.064-0.401c-0.092-0.543-0.191-1.082-0.294-1.612c-0.022-0.125-0.05-0.246-0.073-0.369
				c-0.027-0.138-0.057-0.275-0.084-0.413c-0.054-0.266-0.105-0.535-0.162-0.798c-0.06-0.269-0.125-0.524-0.186-0.789
				c-0.061-0.265-0.113-0.538-0.175-0.8c-0.043-0.174-0.091-0.338-0.134-0.512c-0.043-0.173-0.078-0.353-0.123-0.526
				c-0.064-0.249-0.138-0.487-0.203-0.734c-0.117-0.43-0.233-0.858-0.355-1.28c-0.049-0.169-0.093-0.345-0.143-0.514
				c-0.068-0.231-0.148-0.453-0.22-0.683c-0.131-0.415-0.263-0.827-0.398-1.234c-0.057-0.169-0.106-0.345-0.165-0.512
				c-0.075-0.218-0.162-0.425-0.239-0.642c-0.145-0.401-0.292-0.798-0.444-1.19c-0.063-0.164-0.119-0.335-0.185-0.498
				c-0.113-0.288-0.23-0.571-0.349-0.853c-0.045-0.101-0.087-0.202-0.13-0.303c-0.013-0.025-0.021-0.053-0.033-0.079
				c-0.012-0.027-0.023-0.053-0.036-0.08c-0.054-0.125-0.105-0.252-0.161-0.377c-0.122-0.277-0.247-0.551-0.372-0.825
				c-0.127-0.271-0.255-0.542-0.386-0.81c-0.004-0.007-0.008-0.014-0.013-0.022c-0.033-0.073-0.071-0.143-0.107-0.215
				c-0.221-0.448-0.443-0.891-0.675-1.325c-0.056-0.105-0.118-0.206-0.173-0.311c-0.105-0.192-0.214-0.382-0.32-0.573
				c-0.117-0.207-0.229-0.42-0.35-0.624c-0.129-0.223-0.267-0.436-0.398-0.654c-0.106-0.174-0.211-0.348-0.318-0.52
				c-0.057-0.092-0.111-0.187-0.17-0.279c-0.304-0.475-0.615-0.939-0.934-1.395c-0.047-0.066-0.092-0.133-0.139-0.198
				c-0.046-0.065-0.094-0.131-0.139-0.195c-0.047-0.065-0.094-0.129-0.141-0.193c-0.048-0.065-0.094-0.13-0.142-0.194
				c-0.184-0.248-0.366-0.492-0.554-0.733c-0.047-0.061-0.098-0.121-0.144-0.182c-0.034-0.043-0.07-0.086-0.103-0.128
				c-0.106-0.135-0.214-0.271-0.321-0.403c-0.189-0.234-0.384-0.466-0.578-0.693c-0.116-0.137-0.235-0.27-0.354-0.404
				c-0.033-0.038-0.066-0.075-0.1-0.113c-0.046-0.051-0.092-0.104-0.137-0.157c-0.156-0.174-0.317-0.346-0.476-0.516
				c-0.16-0.171-0.322-0.34-0.485-0.505c-0.086-0.088-0.172-0.173-0.258-0.259c-0.026-0.026-0.052-0.052-0.078-0.079
				c-0.052-0.051-0.103-0.104-0.154-0.154c-0.165-0.163-0.332-0.322-0.499-0.48c-0.147-0.139-0.296-0.276-0.446-0.412
				c-0.117-0.106-0.235-0.211-0.354-0.316c-0.008-0.006-0.013-0.014-0.021-0.019c-0.005-0.005-0.01-0.009-0.013-0.014
				c-0.021-0.018-0.043-0.036-0.063-0.053c-0.151-0.132-0.303-0.264-0.456-0.392c-0.154-0.13-0.309-0.258-0.464-0.383
				c-0.144-0.117-0.289-0.231-0.435-0.345c-0.04-0.033-0.082-0.064-0.124-0.095c-0.019-0.015-0.036-0.029-0.055-0.044
				c-0.088-0.066-0.173-0.133-0.261-0.199c-0.146-0.112-0.296-0.222-0.444-0.331c-0.15-0.108-0.3-0.215-0.45-0.321
				c-0.146-0.102-0.291-0.202-0.438-0.301c-0.005-0.005-0.012-0.009-0.02-0.014c-0.003-0.003-0.01-0.005-0.014-0.008
				c-0.134-0.092-0.269-0.182-0.406-0.271c-0.148-0.096-0.297-0.191-0.445-0.285c-0.15-0.094-0.302-0.186-0.451-0.278
				c-0.131-0.078-0.261-0.156-0.393-0.233c-0.008-0.004-0.016-0.008-0.022-0.013c-0.013-0.006-0.023-0.014-0.035-0.021
				c-0.15-0.088-0.302-0.175-0.453-0.26c-0.153-0.086-0.307-0.17-0.46-0.252c-0.153-0.082-0.308-0.164-0.465-0.245
				c-0.111-0.059-0.229-0.117-0.345-0.175c-0.007-0.003-0.012-0.008-0.021-0.011c-0.006-0.002-0.01-0.005-0.016-0.007
				c-0.029-0.015-0.059-0.03-0.09-0.045c-0.157-0.078-0.315-0.155-0.476-0.231c-0.159-0.076-0.319-0.15-0.479-0.224
				c-0.161-0.074-0.323-0.146-0.486-0.217c-0.084-0.037-0.172-0.074-0.259-0.109c-0.028-0.013-0.058-0.025-0.086-0.038
				c-0.054-0.022-0.106-0.046-0.16-0.068c-0.168-0.07-0.338-0.139-0.51-0.207c-0.171-0.068-0.343-0.134-0.515-0.2
				c-0.173-0.065-0.345-0.128-0.52-0.191c-0.046-0.017-0.093-0.032-0.14-0.049c-0.026-0.008-0.051-0.018-0.076-0.026
				c-0.11-0.04-0.221-0.079-0.333-0.117c-0.184-0.062-0.369-0.123-0.554-0.183c-0.186-0.06-0.372-0.117-0.558-0.174
				c-0.159-0.048-0.315-0.094-0.475-0.14c-0.015-0.004-0.03-0.007-0.043-0.012c-0.018-0.005-0.032-0.01-0.048-0.015
				c-0.204-0.058-0.407-0.113-0.611-0.167c-0.205-0.055-0.411-0.107-0.617-0.158c-0.208-0.052-0.415-0.101-0.625-0.148
				c-0.032-0.008-0.066-0.015-0.099-0.022c-0.013-0.003-0.025-0.006-0.039-0.009c-0.018-0.004-0.037-0.007-0.055-0.012
				c-0.146-0.031-0.291-0.064-0.436-0.095c-0.229-0.049-0.461-0.094-0.693-0.14c-0.231-0.044-0.466-0.085-0.701-0.127
				c-0.06-0.01-0.118-0.019-0.181-0.029c-0.038-0.007-0.078-0.013-0.117-0.02c-0.136-0.022-0.272-0.045-0.409-0.066
				c-0.236-0.037-0.475-0.072-0.714-0.103c-0.271-0.037-0.543-0.072-0.818-0.104c-0.042-0.005-0.087-0.009-0.132-0.014
				c-0.037-0.004-0.073-0.008-0.11-0.012c-0.194-0.022-0.388-0.042-0.582-0.062c-0.279-0.025-0.557-0.05-0.835-0.072
				c-0.234-0.018-0.471-0.033-0.705-0.048c-0.031-0.002-0.06-0.004-0.091-0.007c-0.017-0.001-0.032-0.001-0.048-0.002
				c-0.185-0.011-0.368-0.021-0.554-0.029c-0.185-0.008-0.371-0.016-0.558-0.023c-0.186-0.007-0.371-0.011-0.56-0.017
				c-0.187-0.003-0.376-0.007-0.563-0.009c-0.141-0.002-0.28-0.004-0.418-0.004c-0.083,0-0.167,0-0.25,0c-0.021,0-0.042,0-0.063,0
				c-0.012,0-0.023,0-0.036,0c-0.022,0-0.046,0-0.068,0c-0.14,0.002-0.276,0.003-0.415,0.005c-0.041,0-0.081,0.001-0.123,0.002
				c-0.027,0.001-0.055,0.001-0.081,0.001c-0.029,0-0.058,0.002-0.085,0.002c-0.043,0.001-0.083,0.001-0.123,0.002
				c-0.102,0.003-0.205,0.005-0.307,0.008c-0.063,0.002-0.125,0.004-0.188,0.007c-0.006,0-0.011,0-0.017,0
				c-0.007,0-0.013,0-0.019,0.001c-0.027,0.001-0.058,0.002-0.086,0.002c-0.102,0.004-0.202,0.008-0.304,0.012
				c-0.103,0.004-0.203,0.009-0.306,0.015c-63.35,3.156-126.693,6.313-190.045,9.468c0.29-0.016,0.584-0.027,0.878-0.036
				c0.033-0.001,0.065-0.002,0.098-0.002c0.264-0.009,0.531-0.015,0.798-0.019c0.051-0.001,0.103-0.001,0.154-0.002
				c0.264-0.004,0.527-0.005,0.794-0.005c0.058,0,0.112,0.001,0.169,0.001c0.281,0.002,0.56,0.004,0.842,0.01
				c1.005,0.019,1.998,0.066,2.977,0.137c0.025,0.003,0.053,0.005,0.078,0.007c0.94,0.071,1.868,0.167,2.784,0.285
				c0.047,0.006,0.096,0.012,0.145,0.018c0.915,0.121,1.815,0.267,2.704,0.435c0.049,0.01,0.098,0.019,0.146,0.028
				c0.894,0.173,1.775,0.37,2.645,0.591c0.031,0.008,0.062,0.016,0.091,0.022c0.893,0.231,1.773,0.485,2.641,0.767
				c0.012,0.003,0.023,0.007,0.033,0.012c0.857,0.279,1.703,0.585,2.532,0.916c0.032,0.013,0.064,0.025,0.099,0.038
				c0.823,0.33,1.635,0.685,2.433,1.065c0.032,0.015,0.063,0.031,0.097,0.046c0.801,0.385,1.589,0.793,2.363,1.227
				c0.02,0.012,0.039,0.023,0.058,0.033c0.786,0.443,1.558,0.91,2.315,1.405c0.01,0.008,0.021,0.015,0.035,0.023
				c0.764,0.5,1.516,1.026,2.251,1.58c0.001,0.001,0.003,0.001,0.005,0.002c0.729,0.549,1.444,1.126,2.146,1.726
				c0.024,0.021,0.048,0.042,0.071,0.062c0.695,0.597,1.376,1.22,2.044,1.868c0.02,0.02,0.041,0.041,0.06,0.06
				c0.659,0.642,1.303,1.309,1.934,2c0.036,0.041,0.072,0.082,0.108,0.121c0.616,0.679,1.219,1.383,1.807,2.109
				c0.052,0.063,0.103,0.128,0.153,0.191c0.566,0.705,1.119,1.433,1.661,2.182c0.052,0.073,0.105,0.146,0.157,0.218
				c0.575,0.803,1.137,1.628,1.685,2.481c0.513,0.799,1.006,1.624,1.49,2.461c0.149,0.258,0.294,0.522,0.441,0.784
				c0.343,0.615,0.681,1.238,1.009,1.872c0.146,0.276,0.289,0.551,0.429,0.832c0.405,0.802,0.799,1.621,1.18,2.455
				c0.042,0.093,0.088,0.183,0.13,0.275c0.44,0.976,0.865,1.975,1.274,2.992c0.033,0.083,0.066,0.166,0.099,0.249
				c0.316,0.792,0.615,1.608,0.914,2.424c0.211,0.585,0.416,1.176,0.619,1.772c0.187,0.553,0.374,1.108,0.552,1.672
				c0.191,0.598,0.376,1.205,0.558,1.816c0.174,0.589,0.347,1.181,0.514,1.782c0.17,0.613,0.332,1.235,0.492,1.861
				c0.158,0.614,0.314,1.229,0.464,1.854c0.153,0.644,0.299,1.295,0.442,1.95c0.169,0.766,0.338,1.529,0.493,2.312
				c0.042,0.204,0.082,0.408,0.123,0.612c0.036,0.188,0.067,0.383,0.102,0.571c-17.484,2.599-34.97,5.199-52.454,7.798
				c-0.272,0.039-0.535,0.102-0.793,0.176c-0.063,0.018-0.126,0.037-0.189,0.056c-0.06,0.02-0.125,0.035-0.185,0.055
				c-0.188,0.069-0.372,0.144-0.552,0.229c-0.006,0.004-0.014,0.008-0.021,0.012c-0.169,0.081-0.331,0.167-0.491,0.263
				c-0.062,0.037-0.12,0.082-0.181,0.122c-0.052,0.035-0.104,0.07-0.156,0.106c-0.213,0.149-0.421,0.308-0.618,0.488
				c-0.004,0.004-0.008,0.008-0.012,0.012c-0.003,0.003-0.008,0.005-0.011,0.008c-0.015,0.012-0.026,0.029-0.04,0.042
				c-0.186,0.173-0.362,0.363-0.535,0.563c-0.047,0.054-0.093,0.109-0.139,0.165c-0.038,0.048-0.081,0.091-0.117,0.141
				c-0.047,0.059-0.09,0.116-0.133,0.176c-0.044,0.06-0.088,0.121-0.13,0.182c-0.044,0.062-0.086,0.124-0.127,0.189
				c-0.006,0.009-0.011,0.019-0.018,0.028c-0.006,0.008-0.011,0.016-0.017,0.025c-0.031,0.046-0.06,0.093-0.089,0.141
				c-0.033,0.054-0.068,0.109-0.101,0.164c-0.032,0.055-0.064,0.112-0.098,0.168c-0.031,0.057-0.063,0.114-0.096,0.172
				c-0.03,0.057-0.061,0.116-0.093,0.175c-0.014,0.028-0.028,0.057-0.044,0.085c-0.004,0.008-0.008,0.016-0.012,0.024
				c-0.01,0.019-0.02,0.037-0.027,0.057c-0.028,0.057-0.057,0.113-0.084,0.17c-0.028,0.057-0.055,0.115-0.082,0.173
				c-0.026,0.058-0.053,0.117-0.078,0.177c-0.027,0.057-0.051,0.115-0.077,0.173c-0.025,0.059-0.05,0.118-0.073,0.178
				c-0.014,0.034-0.029,0.07-0.044,0.106c0,0.002-0.002,0.005-0.003,0.007c-0.001,0.003-0.002,0.004-0.002,0.007
				c-0.007,0.02-0.017,0.039-0.024,0.059c-0.024,0.061-0.047,0.122-0.07,0.184c-0.023,0.061-0.046,0.123-0.067,0.185
				c-0.023,0.063-0.047,0.125-0.068,0.189c-0.022,0.063-0.043,0.127-0.064,0.191c-0.022,0.064-0.043,0.129-0.065,0.194
				c-0.018,0.053-0.032,0.104-0.05,0.157c-0.002,0.006-0.002,0.009-0.004,0.015c-0.004,0.011-0.008,0.021-0.01,0.034
				c-0.023,0.068-0.043,0.138-0.064,0.207c-0.021,0.071-0.041,0.141-0.061,0.212c-0.021,0.072-0.04,0.143-0.062,0.216
				c-0.021,0.074-0.04,0.151-0.06,0.229c-0.021,0.075-0.039,0.154-0.06,0.231c-0.012,0.051-0.025,0.103-0.038,0.155
				c0,0.004-0.001,0.008-0.002,0.012c-0.004,0.023-0.012,0.046-0.018,0.07c-0.019,0.079-0.037,0.159-0.054,0.239
				c-0.021,0.087-0.041,0.173-0.058,0.261c-0.02,0.087-0.039,0.176-0.057,0.264c-0.018,0.089-0.035,0.179-0.055,0.269
				c-0.016,0.091-0.033,0.182-0.051,0.273c-0.001,0.007-0.001,0.014-0.003,0.022c-0.003,0.011-0.003,0.023-0.005,0.035
				c-0.016,0.082-0.031,0.164-0.046,0.248c-0.017,0.102-0.034,0.206-0.051,0.309s-0.032,0.209-0.05,0.314
				c-0.015,0.106-0.031,0.211-0.046,0.32c-0.017,0.121-0.033,0.244-0.05,0.367c-0.015,0.124-0.029,0.248-0.045,0.374
				c-0.016,0.125-0.029,0.251-0.043,0.38c-0.015,0.127-0.028,0.257-0.041,0.386c-0.014,0.15-0.029,0.302-0.044,0.456
				c0,0.007-0.001,0.014-0.001,0.021c0,0.004,0,0.007,0,0.01c-0.014,0.143-0.023,0.287-0.037,0.433
				c-0.011,0.157-0.023,0.314-0.033,0.474c-0.011,0.16-0.021,0.319-0.03,0.482c-0.006,0.111-0.012,0.224-0.017,0.337
				c-0.002,0.033-0.004,0.065-0.006,0.098c-0.003,0.05-0.006,0.097-0.008,0.147c-0.008,0.196-0.016,0.394-0.023,0.594
				c-0.007,0.201-0.013,0.403-0.019,0.608c-0.004,0.155-0.008,0.312-0.009,0.468c-0.001,0.022-0.001,0.044-0.002,0.066
				c0,0.028-0.001,0.056-0.002,0.084c-0.002,0.155-0.003,0.312-0.005,0.468c-0.003,0.157-0.003,0.317-0.003,0.476
				c0,0.159,0,0.32,0.002,0.482c0.001,0.162,0.003,0.324,0.004,0.489l1.538,126.457l61.289-23.46l0.194,32.938l174.002-77.026
				l1.063-90.316c0.002-0.224,0.004-0.448,0.005-0.671c0.001-0.223,0.002-0.446,0.003-0.667
				C1543.323,179.823,1543.323,179.602,1543.322,179.381z"/>
			<g>
				<path fill="#7F4B95" d="M1315.241,134.983c4.06,0.08,7.904,0.583,11.531,1.514c3.644,0.935,7.064,2.298,10.261,4.095
					c3.204,1.803,6.182,4.039,8.923,6.709c2.752,2.678,5.266,5.791,7.54,9.339c2.277,3.555,4.282,7.488,6.007,11.796
					c1.729,4.315,3.177,9.003,4.346,14.062c1.169,5.061,2.057,10.487,2.661,16.28c0.604,5.789,0.927,11.935,0.964,18.436
					l0.777,131.512l-43.473-6.701l-1.323-127.939c-0.033-3.096-0.256-5.822-0.672-8.172c-0.415-2.351-1.021-4.327-1.817-5.926
					c-0.797-1.599-1.783-2.82-2.96-3.665c-1.173-0.843-2.534-1.311-4.083-1.402c-1.494-0.088-2.793,0.22-3.9,0.925
					c-1.106,0.702-2.021,1.801-2.742,3.293c-0.722,1.49-1.255,3.372-1.595,5.649c-0.343,2.274-0.494,4.942-0.456,8.003
					l1.538,126.457l-40.204-6.196l-2.033-125.157c-0.09-5.556,0.108-10.824,0.595-15.806c0.487-4.99,1.265-9.695,2.333-14.118
					c1.07-4.433,2.437-8.584,4.096-12.454c1.667-3.884,3.63-7.486,5.896-10.808c2.274-3.333,4.757-6.247,7.451-8.738
					c2.704-2.502,5.621-4.579,8.755-6.23c3.146-1.657,6.511-2.885,10.098-3.679C1307.356,135.263,1311.186,134.903,1315.241,134.983
					z"/>
			</g>
		</g>
		<g>
			<linearGradient id="SVGID_10_" gradientUnits="userSpaceOnUse" x1="1403.917" y1="324.833" x2="1688.1172" y2="324.833">
				<stop  offset="0" style="stop-color:#00269E"/>
				<stop  offset="0.1912" style="stop-color:#03279F"/>
				<stop  offset="0.3319" style="stop-color:#0C2BA4"/>
				<stop  offset="0.4565" style="stop-color:#1C32AB"/>
				<stop  offset="0.5717" style="stop-color:#333BB5"/>
				<stop  offset="0.6804" style="stop-color:#5047C2"/>
				<stop  offset="0.7844" style="stop-color:#7456D2"/>
				<stop  offset="0.8846" style="stop-color:#9E67E5"/>
				<stop  offset="0.9794" style="stop-color:#CE7BFA"/>
				<stop  offset="1" style="stop-color:#DA80FF"/>
			</linearGradient>
			<path fill="url(#SVGID_10_)" d="M1686.136,369.446c-0.671,0.239-1.35,0.455-2.038,0.646c-0.69,0.191-1.39,0.358-2.098,0.498
				c-0.71,0.143-1.429,0.261-2.158,0.353c-1.153,0.146-2.329,0.23-3.529,0.251c-1.202,0.022-2.429-0.019-3.68-0.122
				c-1.253-0.103-2.529-0.27-3.829-0.499c-1.304-0.23-2.63-0.523-3.98-0.88c-4.66-1.232-9.184-3.052-13.569-5.466
				c-4.408-2.426-8.667-5.448-12.775-9.067c-4.123-3.634-8.088-7.863-11.888-12.689c-0.029-0.037-0.059-0.074-0.086-0.111
				c16.519-8.645,33.035-17.288,49.554-25.933c0.358-0.188,0.671-0.427,0.936-0.717c0.266-0.291,0.482-0.633,0.653-1.026
				c0.172-0.394,0.295-0.837,0.37-1.333c0.078-0.495,0.108-1.042,0.092-1.64c-0.028-0.903-0.171-1.728-0.432-2.477
				c-0.261-0.751-0.637-1.425-1.132-2.024c-0.494-0.6-1.105-1.123-1.836-1.574c-0.73-0.449-1.578-0.825-2.547-1.126l-9.456-2.942
				l-0.992-41.537l-59.29,36.411c-0.127-0.386-0.249-0.773-0.371-1.16l83.072-51.193c-1.517-1.491-3-2.853-4.449-4.084
				c-1.451-1.234-2.869-2.337-4.251-3.31c-1.384-0.975-2.734-1.818-4.048-2.53c-1.317-0.713-2.6-1.295-3.846-1.746
				c-0.855-0.307-1.695-0.576-2.52-0.806c-0.826-0.23-1.639-0.421-2.434-0.572c-0.799-0.151-1.58-0.265-2.35-0.337
				c-0.769-0.073-1.521-0.106-2.262-0.1c-0.897,0.007-1.771,0.073-2.624,0.198c-0.854,0.125-1.688,0.308-2.497,0.55
				c-0.812,0.242-1.6,0.544-2.367,0.905c-0.769,0.36-1.514,0.781-2.238,1.262c-17.695,11.742-35.393,23.484-53.088,35.225
				c-0.027-0.198-0.062-0.392-0.087-0.59c-0.872-6.796-1.306-13.695-1.311-20.688c-0.005-6.98,0.427-13.488,1.291-19.521
				c0.857-6.001,2.144-11.53,3.852-16.586c1.695-5.026,3.809-9.583,6.331-13.671c2.506-4.062,5.414-7.66,8.72-10.797
				c0.308-0.292,0.618-0.579,0.929-0.861c0.311-0.28,0.624-0.556,0.938-0.825c0.315-0.27,0.631-0.534,0.948-0.791
				c0.317-0.258,0.636-0.51,0.957-0.757l-192.073,147.81c-0.273,0.213-0.547,0.429-0.819,0.648c-0.273,0.219-0.544,0.443-0.815,0.67
				c-0.271,0.229-0.541,0.46-0.809,0.696c-0.27,0.235-0.536,0.477-0.802,0.721c-2.856,2.616-5.402,5.537-7.639,8.762
				c-2.245,3.242-4.177,6.789-5.791,10.645c-1.618,3.872-2.917,8.052-3.89,12.539c-0.978,4.506-1.628,9.319-1.947,14.44
				c-0.321,5.122-0.289,10.139,0.097,15.044c0.385,4.916,1.124,9.72,2.221,14.397c1.097,4.686,2.548,9.249,4.354,13.679
				c1.806,4.433,3.964,8.73,6.473,12.89c2.503,4.157,5.177,7.88,8.019,11.169c2.836,3.281,5.836,6.123,8.998,8.529
				c3.155,2.398,6.468,4.357,9.934,5.882c3.451,1.516,7.055,2.597,10.807,3.244c1.088,0.189,2.162,0.331,3.219,0.43
				c1.055,0.1,2.096,0.152,3.118,0.161c1.024,0.01,2.031-0.025,3.022-0.106c0.989-0.078,1.965-0.203,2.925-0.371
				c0.606-0.105,1.206-0.229,1.799-0.37c0.594-0.142,1.18-0.299,1.761-0.477c0.579-0.175,1.154-0.37,1.723-0.58
				c0.566-0.212,1.126-0.439,1.682-0.688c71.28-31.587,142.551-63.175,213.833-94.764
				C1687.467,368.943,1686.806,369.207,1686.136,369.446z"/>
			<g>
				<path fill="#D27BF5" d="M1643.966,175.521c1.47,0.054,2.962,0.184,4.477,0.388c1.51,0.203,3.044,0.483,4.6,0.835
					c1.552,0.352,3.125,0.78,4.721,1.28c1.593,0.5,3.207,1.074,4.844,1.721c1.578,0.625,3.197,1.37,4.859,2.238
					c1.657,0.866,3.359,1.853,5.1,2.96c1.74,1.104,3.52,2.33,5.342,3.675c1.819,1.343,3.68,2.804,5.58,4.384l1.639,51.083
					c-1.517-1.491-3-2.853-4.449-4.084c-1.451-1.234-2.869-2.337-4.251-3.31c-1.384-0.975-2.734-1.818-4.048-2.53
					c-1.317-0.713-2.6-1.295-3.846-1.746c-0.855-0.307-1.695-0.576-2.52-0.806c-0.826-0.23-1.639-0.421-2.434-0.572
					c-0.799-0.151-1.58-0.265-2.35-0.337c-0.769-0.073-1.521-0.106-2.262-0.1c-1.219,0.01-2.399,0.128-3.537,0.355
					c-1.142,0.227-2.24,0.563-3.299,1.008c-1.063,0.446-2.082,1.001-3.063,1.667c-0.98,0.667-1.92,1.444-2.817,2.332
					c-1.448,1.431-2.712,3.078-3.79,4.941c-1.083,1.869-1.979,3.955-2.688,6.26c-0.711,2.31-1.232,4.839-1.563,7.587
					c-0.334,2.755-0.478,5.728-0.427,8.921c0.049,3.266,0.273,6.428,0.672,9.483c0.398,3.062,0.973,6.013,1.721,8.854
					c0.748,2.843,1.672,5.574,2.769,8.189c1.096,2.616,2.364,5.115,3.808,7.497c1.438,2.379,2.996,4.553,4.67,6.518
					c1.672,1.963,3.459,3.717,5.359,5.264c1.897,1.543,3.907,2.877,6.027,4.001c2.117,1.122,4.341,2.035,6.672,2.74
					c0.473,0.141,0.926,0.264,1.358,0.364c0.434,0.101,0.847,0.18,1.239,0.238c0.396,0.058,0.771,0.096,1.124,0.112
					c0.356,0.017,0.691,0.011,1.009-0.014c0.674-0.054,1.262-0.204,1.761-0.448c0.498-0.245,0.909-0.584,1.233-1.02
					c0.324-0.434,0.562-0.962,0.713-1.588c0.15-0.623,0.213-1.342,0.19-2.155c-0.028-0.903-0.171-1.728-0.432-2.477
					c-0.261-0.751-0.637-1.425-1.132-2.024c-0.494-0.6-1.105-1.123-1.836-1.574c-0.73-0.449-1.578-0.825-2.547-1.126l-9.456-2.942
					l-0.992-41.537l36.524,12.405c2.037,3.99,3.837,7.945,5.398,11.866c1.563,3.923,2.89,7.815,3.98,11.679
					c1.092,3.868,1.949,7.71,2.572,11.528c0.622,3.825,1.009,7.628,1.161,11.413c0.177,4.412,0.064,8.576-0.334,12.492
					c-0.4,3.929-1.091,7.61-2.075,11.043c-0.99,3.446-2.275,6.647-3.858,9.6c-1.592,2.963-3.483,5.681-5.683,8.146
					c-1.372,1.54-2.807,2.92-4.303,4.138c-1.503,1.223-3.066,2.283-4.691,3.18c-1.632,0.9-3.326,1.637-5.085,2.206
					c-1.764,0.572-3.589,0.979-5.48,1.219c-1.153,0.146-2.329,0.23-3.529,0.251c-1.202,0.022-2.429-0.019-3.68-0.122
					c-1.253-0.103-2.529-0.27-3.829-0.499c-1.304-0.23-2.63-0.523-3.98-0.88c-4.66-1.232-9.184-3.052-13.569-5.466
					c-4.408-2.426-8.667-5.448-12.775-9.067c-4.123-3.634-8.088-7.863-11.888-12.689c-3.811-4.836-7.449-10.266-10.915-16.284
					c-3.473-6.024-6.518-12.205-9.134-18.533c-2.616-6.327-4.8-12.792-6.548-19.389c-1.745-6.586-3.055-13.292-3.928-20.111
					c-0.872-6.796-1.306-13.695-1.311-20.688c-0.005-6.98,0.427-13.488,1.291-19.521c0.857-6.001,2.144-11.53,3.852-16.586
					c1.695-5.026,3.809-9.583,6.331-13.671c2.506-4.062,5.414-7.66,8.72-10.797c2.126-2.019,4.329-3.766,6.613-5.246
					c2.271-1.472,4.618-2.678,7.044-3.62c2.413-0.938,4.904-1.613,7.471-2.03C1638.631,175.579,1641.261,175.422,1643.966,175.521z"
					/>
			</g>
		</g>
		<g>
			<linearGradient id="SVGID_11_" gradientUnits="userSpaceOnUse" x1="1749.3643" y1="204.4644" x2="1813.2959" y2="204.4644">
				<stop  offset="0" style="stop-color:#DA80FF"/>
				<stop  offset="0.0983" style="stop-color:#D37DFC"/>
				<stop  offset="0.2405" style="stop-color:#C075F3"/>
				<stop  offset="0.4093" style="stop-color:#A068E5"/>
				<stop  offset="0.5987" style="stop-color:#7456D2"/>
				<stop  offset="0.8023" style="stop-color:#3D3FB9"/>
				<stop  offset="1" style="stop-color:#00269E"/>
			</linearGradient>
			<path fill="url(#SVGID_11_)" d="M1813.295,187.982c0.002-0.198,0.002-0.395,0-0.592c0-0.02-0.001-0.04-0.002-0.061
				c0-0.05-0.001-0.099-0.002-0.149c-0.004-0.183-0.007-0.365-0.012-0.546c-0.005-0.139-0.013-0.277-0.02-0.416
				c-0.003-0.072-0.005-0.146-0.01-0.216c-0.001-0.039-0.001-0.077-0.003-0.115c-0.015-0.248-0.031-0.494-0.052-0.738
				c-0.004-0.057-0.011-0.112-0.015-0.169c-0.003-0.033-0.004-0.066-0.007-0.099c-0.005-0.044-0.011-0.087-0.015-0.132
				c-0.011-0.11-0.02-0.22-0.031-0.331c-0.024-0.22-0.05-0.438-0.077-0.655c-0.004-0.022-0.006-0.046-0.008-0.07
				c-0.001-0.002-0.002-0.006-0.002-0.008c-0.032-0.243-0.065-0.484-0.104-0.725c-0.016-0.099-0.035-0.194-0.052-0.292
				c-0.01-0.07-0.022-0.141-0.036-0.211c-0.012-0.071-0.022-0.143-0.035-0.214c-0.045-0.237-0.092-0.473-0.141-0.707
				c-0.006-0.022-0.011-0.045-0.017-0.066c-0.012-0.054-0.025-0.108-0.038-0.162c-0.041-0.191-0.084-0.383-0.131-0.571
				c-0.022-0.096-0.049-0.188-0.074-0.282c-0.012-0.044-0.02-0.087-0.031-0.131c-0.011-0.041-0.023-0.081-0.034-0.122
				c-0.022-0.084-0.043-0.17-0.068-0.253c-0.06-0.215-0.124-0.428-0.188-0.641c-0.01-0.028-0.017-0.057-0.026-0.085
				c-0.005-0.017-0.01-0.035-0.016-0.052c-0.081-0.256-0.167-0.513-0.255-0.766c-0.014-0.035-0.028-0.069-0.041-0.104
				c-0.129-0.364-0.267-0.724-0.41-1.08c-0.01-0.021-0.017-0.042-0.026-0.064c-0.001-0.002-0.001-0.002-0.002-0.006
				c-0.146-0.349-0.296-0.693-0.454-1.034c-0.018-0.035-0.036-0.069-0.053-0.104c-0.012-0.023-0.021-0.048-0.032-0.071
				c-0.038-0.08-0.081-0.155-0.119-0.233c-0.134-0.271-0.271-0.541-0.413-0.808c-0.026-0.047-0.049-0.096-0.075-0.144
				c-0.04-0.073-0.086-0.145-0.128-0.217c-0.137-0.247-0.279-0.493-0.427-0.735c-0.04-0.066-0.076-0.135-0.117-0.201
				c-0.071-0.114-0.143-0.228-0.215-0.341c-0.011-0.015-0.021-0.031-0.031-0.047c-0.013-0.02-0.024-0.039-0.036-0.058
				c-0.051-0.078-0.102-0.155-0.152-0.233c-0.075-0.111-0.15-0.223-0.227-0.334c-0.076-0.11-0.153-0.221-0.232-0.331
				c-0.2-0.282-0.404-0.556-0.611-0.822c-0.206-0.266-0.417-0.524-0.63-0.776c-0.028-0.034-0.059-0.065-0.089-0.099
				c-0.027-0.033-0.059-0.066-0.087-0.099c-0.157-0.181-0.315-0.362-0.476-0.536c-0.221-0.237-0.445-0.467-0.672-0.69
				c-0.058-0.056-0.119-0.106-0.176-0.162c-0.025-0.025-0.049-0.055-0.076-0.079c-0.04-0.04-0.085-0.071-0.128-0.109
				c-0.157-0.148-0.313-0.299-0.476-0.439c-0.289-0.252-0.583-0.493-0.884-0.722c-0.015-0.01-0.028-0.02-0.041-0.031
				c-0.032-0.022-0.061-0.042-0.091-0.064c-0.258-0.194-0.518-0.384-0.782-0.561c-0.227-0.154-0.461-0.293-0.694-0.435
				c-0.036-0.021-0.069-0.048-0.104-0.069c-0.017-0.01-0.033-0.016-0.049-0.026c-0.033-0.02-0.065-0.042-0.099-0.061
				c-0.196-0.113-0.391-0.221-0.589-0.326s-0.398-0.205-0.6-0.301c-0.12-0.057-0.239-0.109-0.36-0.163
				c-0.03-0.014-0.06-0.028-0.089-0.041c-0.055-0.024-0.107-0.05-0.161-0.073c-0.206-0.089-0.413-0.172-0.622-0.253
				c-0.184-0.07-0.371-0.138-0.557-0.201c-0.141-0.05-0.282-0.093-0.424-0.138c-0.012-0.004-0.024-0.01-0.035-0.013
				c-0.009-0.003-0.018-0.004-0.025-0.007c-0.029-0.009-0.055-0.018-0.082-0.026c-0.19-0.057-0.381-0.112-0.573-0.164
				c-0.192-0.051-0.386-0.1-0.582-0.145c-0.194-0.046-0.391-0.087-0.586-0.126c-0.024-0.005-0.048-0.008-0.073-0.013
				c-0.011-0.003-0.024-0.004-0.037-0.007c-0.162-0.03-0.322-0.06-0.484-0.087c-0.2-0.032-0.4-0.062-0.604-0.088
				c-0.202-0.026-0.406-0.05-0.612-0.069c-0.024-0.002-0.05-0.005-0.076-0.008c-0.024-0.002-0.05-0.005-0.075-0.007
				c-0.027-0.002-0.051-0.004-0.077-0.007c-0.025-0.001-0.052-0.004-0.077-0.005c-0.191-0.016-0.383-0.029-0.574-0.04
				c-0.141-0.008-0.281-0.013-0.42-0.018c-0.032-0.001-0.064-0.003-0.097-0.004c-0.017,0-0.036-0.002-0.052-0.002
				c-0.188-0.005-0.377-0.008-0.564-0.008c-0.11,0-0.216,0.003-0.325,0.005c-0.039,0.001-0.077,0.001-0.118,0.002
				c-0.037,0-0.076,0-0.115,0.001c-0.201,0.006-0.401,0.015-0.601,0.028c-0.062,0.003-0.121,0.01-0.182,0.014
				c-0.059,0.005-0.116,0.009-0.175,0.014c-0.08,0.007-0.16,0.011-0.238,0.019c-0.198,0.019-0.395,0.04-0.59,0.065
				c-0.016,0.002-0.034,0.005-0.049,0.008c-0.012,0.001-0.024,0.002-0.036,0.003c-0.027,0.004-0.054,0.009-0.081,0.014
				c-0.138,0.019-0.277,0.037-0.417,0.059c-0.136,0.023-0.271,0.049-0.405,0.074c-0.039,0.008-0.08,0.014-0.12,0.021
				c-0.022,0.005-0.045,0.009-0.07,0.013c-0.196,0.039-0.394,0.082-0.588,0.129c-0.063,0.013-0.123,0.03-0.186,0.046
				c-0.058,0.016-0.118,0.03-0.177,0.045c-0.073,0.019-0.146,0.036-0.221,0.056c-0.192,0.053-0.383,0.109-0.574,0.167
				c-0.014,0.006-0.027,0.011-0.042,0.015c-0.036,0.012-0.075,0.026-0.112,0.039c-0.172,0.056-0.345,0.111-0.516,0.173
				c-0.07,0.025-0.14,0.055-0.209,0.081c-0.038,0.015-0.079,0.026-0.117,0.042c-0.039,0.015-0.077,0.033-0.118,0.049
				c-0.072,0.027-0.145,0.053-0.218,0.083c-0.156,0.063-0.311,0.133-0.466,0.201c-0.047,0.022-0.095,0.042-0.142,0.062
				c-0.014,0.006-0.029,0.012-0.043,0.018c-0.215,0.1-0.429,0.204-0.641,0.311c-0.022,0.012-0.046,0.026-0.068,0.038
				c-0.4,0.207-0.794,0.433-1.183,0.672c-0.034,0.021-0.067,0.038-0.102,0.058c-0.05,0.031-0.097,0.069-0.147,0.101
				c-0.135,0.086-0.273,0.168-0.407,0.26c-0.222,0.15-0.438,0.311-0.656,0.472c-0.032,0.023-0.065,0.042-0.097,0.066
				c-0.01,0.008-0.021,0.017-0.031,0.025c-0.376,0.283-0.743,0.588-1.107,0.905c-0.043,0.036-0.084,0.065-0.124,0.101
				c-0.046,0.04-0.091,0.089-0.137,0.131c-0.365,0.329-0.728,0.669-1.081,1.033c-0.021,0.022-0.044,0.045-0.066,0.068
				c-0.021,0.022-0.044,0.045-0.064,0.068c-0.023,0.023-0.045,0.046-0.065,0.069c-0.021,0.022-0.044,0.046-0.065,0.069
				c-10.224,10.878-20.449,21.755-30.674,32.633c0.032-0.035,0.066-0.071,0.099-0.105c0.033-0.035,0.065-0.07,0.101-0.105
				c0.032-0.035,0.066-0.069,0.1-0.104c0.034-0.035,0.067-0.069,0.1-0.104c0.539-0.554,1.092-1.071,1.646-1.573
				c0.133-0.119,0.266-0.238,0.399-0.354c0.556-0.483,1.116-0.947,1.69-1.378c0.064-0.05,0.132-0.093,0.197-0.142
				c0.523-0.389,1.06-0.752,1.6-1.099c0.137-0.088,0.273-0.178,0.412-0.264c0.591-0.363,1.189-0.704,1.797-1.016
				c0.379-0.195,0.759-0.382,1.145-0.557c0.071-0.032,0.145-0.062,0.215-0.093c0.345-0.152,0.693-0.296,1.043-0.434
				c0.122-0.047,0.245-0.095,0.368-0.141c0.36-0.134,0.725-0.262,1.093-0.38c0.061-0.02,0.121-0.042,0.181-0.061
				c0.425-0.133,0.851-0.251,1.28-0.363c0.086-0.022,0.173-0.043,0.26-0.065c0.43-0.106,0.863-0.203,1.302-0.288
				c0.058-0.012,0.119-0.021,0.179-0.032c0.416-0.077,0.836-0.144,1.258-0.202c0.061-0.008,0.117-0.018,0.178-0.025
				c0.445-0.058,0.896-0.102,1.35-0.138c0.085-0.007,0.171-0.014,0.257-0.02c0.455-0.031,0.914-0.054,1.377-0.064
				c0.062-0.001,0.121-0.001,0.183-0.002c0.479-0.008,0.962-0.006,1.447,0.009c0.04,0.001,0.08,0.004,0.12,0.005
				c0.51,0.02,1.023,0.047,1.54,0.092c0.508,0.042,1.009,0.099,1.507,0.167c0.067,0.01,0.135,0.019,0.203,0.03
				c0.431,0.061,0.856,0.131,1.277,0.21c0.056,0.011,0.11,0.02,0.166,0.03c0.441,0.086,0.879,0.185,1.313,0.292
				c0.089,0.022,0.181,0.045,0.271,0.068c0.429,0.111,0.854,0.23,1.273,0.36c0.061,0.019,0.121,0.041,0.184,0.06
				c0.396,0.125,0.788,0.261,1.176,0.405c0.061,0.022,0.118,0.042,0.179,0.065c0.412,0.157,0.818,0.326,1.221,0.503
				c0.103,0.044,0.202,0.092,0.306,0.138c0.334,0.152,0.664,0.311,0.992,0.479c0.082,0.041,0.164,0.08,0.245,0.123
				c0.381,0.198,0.754,0.407,1.124,0.625c0.361,0.211,0.715,0.436,1.068,0.665c0.102,0.067,0.206,0.127,0.308,0.195
				c0.449,0.302,0.893,0.62,1.329,0.953c0.115,0.088,0.228,0.184,0.34,0.274c0.316,0.249,0.632,0.503,0.941,0.769
				c0.161,0.136,0.316,0.282,0.475,0.425c0.26,0.234,0.521,0.47,0.775,0.716c0.201,0.194,0.4,0.393,0.597,0.594
				c0.156,0.158,0.311,0.313,0.464,0.475c0.21,0.224,0.417,0.455,0.623,0.687c0.144,0.161,0.288,0.319,0.43,0.483
				c0.234,0.272,0.462,0.555,0.688,0.838c0.108,0.131,0.215,0.259,0.321,0.393c0.336,0.428,0.663,0.866,0.987,1.32
				c0.33,0.462,0.648,0.929,0.956,1.402c0.008,0.012,0.015,0.024,0.024,0.036c0.202,0.314,0.391,0.632,0.586,0.949
				c0.216,0.354,0.423,0.711,0.626,1.072c0.111,0.199,0.225,0.397,0.332,0.598c0.206,0.38,0.4,0.765,0.593,1.151
				c0.091,0.184,0.188,0.367,0.277,0.553c0.268,0.567,0.526,1.139,0.767,1.72c0.014,0.033,0.026,0.068,0.041,0.102
				c0.226,0.549,0.437,1.103,0.64,1.663c0.161,0.461,0.321,0.923,0.47,1.391c0.02,0.061,0.036,0.123,0.055,0.186
				c0.132,0.427,0.255,0.857,0.375,1.292c0.04,0.149,0.079,0.3,0.118,0.451c0.106,0.412,0.208,0.827,0.303,1.245
				c0.021,0.091,0.043,0.182,0.063,0.274c0.107,0.495,0.205,0.996,0.295,1.499c0.022,0.117,0.041,0.234,0.061,0.35
				c0.087,0.511,0.168,1.025,0.237,1.546c0.005,0.034,0.009,0.07,0.013,0.105c0.064,0.497,0.119,0.999,0.167,1.502
				c0.012,0.119,0.023,0.237,0.035,0.356c0.044,0.518,0.081,1.04,0.11,1.566c0.006,0.103,0.01,0.206,0.015,0.309
				c0.022,0.489,0.038,0.982,0.046,1.479c0.002,0.08,0.005,0.156,0.006,0.235c0.006,0.594,0.003,1.192-0.012,1.795
				c0,0.013,0,0.026,0,0.041c-0.015,0.63-0.04,1.266-0.081,1.907c-0.06,1.03-0.149,2.045-0.262,3.049
				c-0.005,0.054-0.013,0.108-0.019,0.162c-0.108,0.941-0.239,1.871-0.393,2.789c-0.015,0.094-0.032,0.187-0.049,0.281
				c-0.152,0.889-0.326,1.767-0.521,2.633c-0.019,0.082-0.036,0.164-0.055,0.246c-0.216,0.928-0.45,1.844-0.712,2.745
				c4.579-15.731,9.157-31.461,13.737-47.191c0.077-0.264,0.152-0.53,0.223-0.798c0.07-0.267,0.136-0.537,0.202-0.807
				c0.015-0.066,0.027-0.132,0.044-0.198c0.004-0.022,0.012-0.044,0.017-0.066c0.006-0.03,0.01-0.061,0.018-0.09
				c0.036-0.155,0.072-0.31,0.104-0.465c0.061-0.274,0.114-0.55,0.166-0.828c0.028-0.149,0.051-0.3,0.078-0.45
				c0.004-0.031,0.011-0.061,0.017-0.092c0.005-0.025,0.007-0.052,0.012-0.078c0.014-0.085,0.03-0.171,0.044-0.257
				c0.047-0.294,0.09-0.59,0.131-0.888c0.031-0.235,0.059-0.474,0.087-0.712c0.002-0.016,0.005-0.03,0.006-0.046
				c0.002-0.008,0.002-0.016,0.004-0.024c0.003-0.039,0.009-0.078,0.013-0.116c0.032-0.302,0.063-0.605,0.089-0.911
				c0.007-0.083,0.015-0.164,0.021-0.245c0.007-0.082,0.013-0.164,0.018-0.246c0.006-0.083,0.013-0.165,0.019-0.246
				c0.004-0.083,0.011-0.166,0.015-0.248c0.013-0.204,0.023-0.406,0.031-0.606c0.01-0.202,0.017-0.402,0.022-0.603
				c0-0.01,0-0.021,0-0.033c0.001-0.019,0.001-0.036,0.001-0.055C1813.291,188.319,1813.293,188.149,1813.295,187.982z"/>
			<g>
				<path fill="#AF67CC" d="M1772.278,193.769c2.119,0.179,4.143,0.569,6.068,1.173c1.927,0.604,3.758,1.419,5.491,2.449
					c1.732,1.028,3.368,2.269,4.905,3.722c1.537,1.454,2.977,3.118,4.317,4.997c1.34,1.876,2.496,3.843,3.462,5.898
					c0.967,2.055,1.748,4.199,2.341,6.432c0.593,2.231,0.999,4.552,1.219,6.959c0.219,2.407,0.253,4.902,0.096,7.484
					c-0.159,2.685-0.491,5.275-0.996,7.773c-0.504,2.496-1.178,4.9-2.023,7.212c-0.845,2.311-1.862,4.528-3.05,6.652
					s-2.544,4.156-4.074,6.097c-1.525,1.939-3.161,3.709-4.909,5.31c-1.747,1.6-3.604,3.031-5.572,4.294
					c-1.967,1.262-4.046,2.356-6.232,3.283c-2.188,0.926-4.485,1.684-6.894,2.274l0.624-10.985c-2.16-0.342-4.212-0.859-6.151-1.551
					c-1.94-0.691-3.768-1.558-5.486-2.599c-1.717-1.04-3.325-2.256-4.822-3.648c-1.497-1.39-2.883-2.958-4.159-4.701
					c-1.275-1.741-2.376-3.566-3.3-5.475c-0.924-1.91-1.674-3.904-2.247-5.984c-0.572-2.079-0.97-4.243-1.19-6.494
					c-0.222-2.251-0.268-4.586-0.137-7.009c0.138-2.549,0.453-4.981,0.945-7.297c0.494-2.316,1.165-4.516,2.015-6.598
					c0.851-2.083,1.88-4.049,3.087-5.896c1.207-1.849,2.594-3.579,4.158-5.192c1.566-1.611,3.21-2.999,4.931-4.163
					c1.722-1.166,3.521-2.105,5.396-2.822c1.878-0.716,3.832-1.207,5.861-1.474C1767.983,193.625,1770.093,193.584,1772.278,193.769
					z"/>
			</g>
		</g>
	</g>
	<g>
		<linearGradient id="SVGID_12_" gradientUnits="userSpaceOnUse" x1="1737.2197" y1="367.3857" x2="1815.0332" y2="367.3857">
			<stop  offset="0" style="stop-color:#00D7A9"/>
			<stop  offset="0.2157" style="stop-color:#01D4A9"/>
			<stop  offset="0.3765" style="stop-color:#04CAAA"/>
			<stop  offset="0.5195" style="stop-color:#0ABAAC"/>
			<stop  offset="0.6522" style="stop-color:#12A4AE"/>
			<stop  offset="0.7777" style="stop-color:#1D86B0"/>
			<stop  offset="0.8962" style="stop-color:#2963B4"/>
			<stop  offset="1" style="stop-color:#373DB7"/>
		</linearGradient>
		<path fill="url(#SVGID_12_)" d="M1814.31,399.399c0.879,1.99,0.957,3.898,0.232,5.722c-0.725,1.822-2.083,3.174-4.072,4.051
			l-26.684,11.771c-1.99,0.878-3.893,0.965-5.706,0.262c-1.813-0.701-3.16-2.05-4.038-4.042l-36.091-81.816
			c-0.878-1.989-0.967-3.892-0.261-5.706c0.703-1.813,2.05-3.16,4.04-4.038l26.683-11.77c1.99-0.878,3.903-0.968,5.737-0.275
			c1.835,0.695,3.191,2.038,4.069,4.027L1814.31,399.399z M1805.521,402.405l-35.445-80.355l-23.334,10.293l35.445,80.354
			L1805.521,402.405z"/>
		<linearGradient id="SVGID_13_" gradientUnits="userSpaceOnUse" x1="1615.5391" y1="569.1748" x2="1704.748" y2="569.1748">
			<stop  offset="0" style="stop-color:#00D7A9"/>
			<stop  offset="0.2157" style="stop-color:#01D4A9"/>
			<stop  offset="0.3765" style="stop-color:#04CAAA"/>
			<stop  offset="0.5195" style="stop-color:#0ABAAC"/>
			<stop  offset="0.6522" style="stop-color:#12A4AE"/>
			<stop  offset="0.7777" style="stop-color:#1D86B0"/>
			<stop  offset="0.8962" style="stop-color:#2963B4"/>
			<stop  offset="1" style="stop-color:#373DB7"/>
		</linearGradient>
		<path fill="url(#SVGID_13_)" d="M1704.748,606.445l-7.981,3.521l-26.631-60.372c-0.377-0.853-1.194-3.476-2.453-7.869
			l10.39,65.789l-1.705,0.753l-41.581-52.031c2.413,3.934,3.799,6.306,4.158,7.118l26.631,60.372l-7.98,3.52l-42.056-95.34
			l7.858-3.468l42.83,55.192c0.224,0.29,0.709,1.168,1.453,2.633c-0.269-0.608-0.591-1.557-0.967-2.847l-11.882-68.845l7.859-3.467
			L1704.748,606.445z"/>
		<linearGradient id="SVGID_14_" gradientUnits="userSpaceOnUse" x1="1698.3945" y1="544.7646" x2="1765.7793" y2="544.7646">
			<stop  offset="0" style="stop-color:#00D7A9"/>
			<stop  offset="0.2157" style="stop-color:#01D4A9"/>
			<stop  offset="0.3765" style="stop-color:#04CAAA"/>
			<stop  offset="0.5195" style="stop-color:#0ABAAC"/>
			<stop  offset="0.6522" style="stop-color:#12A4AE"/>
			<stop  offset="0.7777" style="stop-color:#1D86B0"/>
			<stop  offset="0.8962" style="stop-color:#2963B4"/>
			<stop  offset="1" style="stop-color:#373DB7"/>
		</linearGradient>
		<path fill="url(#SVGID_14_)" d="M1765.779,579.523l-8.406,3.709l-12.703-19.723l-18.946,8.358l6,22.678l-8.162,3.601l-0.107-0.243
			l-25.06-102.839l8.346-3.681L1765.779,579.523z M1740.268,556.5l-31.135-47.979l14.382,55.367L1740.268,556.5z"/>
		<linearGradient id="SVGID_15_" gradientUnits="userSpaceOnUse" x1="1737.2979" y1="514.1885" x2="1802.6875" y2="514.1885">
			<stop  offset="0" style="stop-color:#00D7A9"/>
			<stop  offset="0.2157" style="stop-color:#01D4A9"/>
			<stop  offset="0.3765" style="stop-color:#04CAAA"/>
			<stop  offset="0.5195" style="stop-color:#0ABAAC"/>
			<stop  offset="0.6522" style="stop-color:#12A4AE"/>
			<stop  offset="0.7777" style="stop-color:#1D86B0"/>
			<stop  offset="0.8962" style="stop-color:#2963B4"/>
			<stop  offset="1" style="stop-color:#373DB7"/>
		</linearGradient>
		<path fill="url(#SVGID_15_)" d="M1778.679,468.893l-14.743,6.502l38.752,87.849l-8.469,3.735l-38.751-87.848l-14.864,6.557
			l-3.306-7.493l38.075-16.796L1778.679,468.893z"/>
		<linearGradient id="SVGID_16_" gradientUnits="userSpaceOnUse" x1="1793.1523" y1="499.3594" x2="1843.6758" y2="499.3594">
			<stop  offset="0" style="stop-color:#00D7A9"/>
			<stop  offset="0.2157" style="stop-color:#01D4A9"/>
			<stop  offset="0.3765" style="stop-color:#04CAAA"/>
			<stop  offset="0.5195" style="stop-color:#0ABAAC"/>
			<stop  offset="0.6522" style="stop-color:#12A4AE"/>
			<stop  offset="0.7777" style="stop-color:#1D86B0"/>
			<stop  offset="0.8962" style="stop-color:#2963B4"/>
			<stop  offset="1" style="stop-color:#373DB7"/>
		</linearGradient>
		<path fill="url(#SVGID_16_)" d="M1843.676,545.162l-8.468,3.735l-42.056-95.341l8.467-3.735L1843.676,545.162z"/>
		<linearGradient id="SVGID_17_" gradientUnits="userSpaceOnUse" x1="1827.1328" y1="478.8291" x2="1902.8652" y2="478.8291">
			<stop  offset="0" style="stop-color:#00D7A9"/>
			<stop  offset="0.2157" style="stop-color:#01D4A9"/>
			<stop  offset="0.3765" style="stop-color:#04CAAA"/>
			<stop  offset="0.5195" style="stop-color:#0ABAAC"/>
			<stop  offset="0.6522" style="stop-color:#12A4AE"/>
			<stop  offset="0.7777" style="stop-color:#1D86B0"/>
			<stop  offset="0.8962" style="stop-color:#2963B4"/>
			<stop  offset="1" style="stop-color:#373DB7"/>
		</linearGradient>
		<path fill="url(#SVGID_17_)" d="M1902.152,511.289c0.878,1.99,0.944,3.902,0.2,5.733c-0.745,1.833-2.111,3.188-4.102,4.066
			l-24.551,10.828c-1.99,0.879-3.893,0.967-5.707,0.263c-1.814-0.702-3.161-2.051-4.038-4.042l-36.091-81.816
			c-0.878-1.988-0.967-3.892-0.26-5.706c0.702-1.813,2.049-3.16,4.039-4.038l24.552-10.829c1.989-0.878,3.912-0.973,5.767-0.289
			c1.855,0.686,3.222,2.023,4.099,4.014l9.783,22.176l-8.528,3.761l-9.461-21.442l-21.199,9.352l35.445,80.354l21.199-9.353
			l-10.345-23.453l8.527-3.762L1902.152,511.289z"/>
	</g>
</g>
</svg>
